<?xml version="1.0" encoding="us-ascii" standalone="no"?><svg xmlns="http://www.w3.org/2000/svg" xmlns:xlink="http://www.w3.org/1999/xlink" contentStyleType="text/css" height="687.5px" preserveAspectRatio="none" style="width:634px;height:687px;" version="1.1" viewBox="0 0 634 687" width="634.375px" zoomAndPan="magnify"><defs><linearGradient id="g1811gl0cfx69r0" x1="50%" x2="50%" y1="0%" y2="100%"><stop offset="0%" stop-color="#D3F198"/><stop offset="100%" stop-color="#B5E853"/></linearGradient></defs><g><!--class SOS--><g id="elem_SOS"><rect codeLine="2" fill="url(#g1811gl0cfx69r0)" height="240.8773" id="SOS" rx="20.8333" ry="20.8333" style="stroke:#D3F198;stroke-width:1.0416666666666667;" width="423.9583" x="83.3333" y="17.7083"/><rect fill="url(#g1811gl0cfx69r0)" height="34.1715" rx="20.8333" ry="20.8333" style="stroke:url(#g1811gl0cfx69r0);stroke-width:1.0416666666666667;" width="423.9583" x="83.3333" y="17.7083"/><rect fill="url(#g1811gl0cfx69r0)" height="20.8333" style="stroke:url(#g1811gl0cfx69r0);stroke-width:1.0416666666666667;" width="423.9583" x="83.3333" y="31.0465"/><rect codeLine="2" fill="none" height="240.8773" id="SOS" rx="20.8333" ry="20.8333" style="stroke:#D3F198;stroke-width:1.0416666666666667;" width="423.9583" x="83.3333" y="17.7083"/><ellipse cx="272.9167" cy="34.7941" fill="none" rx="10.4167" ry="10.4167" style="stroke:#6D8B32;stroke-width:1.0416666666666667;"/><path d="M274.8535,31.4087 C274.1699,31.0832 273.7305,30.9855 273.0794,30.9855 C271.1589,30.9855 269.6777,32.4992 269.6777,34.5011 L269.6777,35.3312 C269.6777,37.2355 271.2402,38.619 273.3561,38.619 C274.2513,38.619 275.1139,38.3911 275.651,37.9842 C276.0905,37.6912 276.3184,37.3657 276.3184,37.0728 C276.3184,36.7472 276.0254,36.4543 275.6999,36.4543 C275.5371,36.4543 275.3906,36.5194 275.2441,36.6496 C274.9023,37.0076 274.9023,37.0076 274.7721,37.0728 C274.4629,37.2681 273.9583,37.3657 273.3887,37.3657 C271.8913,37.3657 270.931,36.5519 270.931,35.2987 L270.931,34.5011 C270.931,33.1828 271.8587,32.2225 273.1283,32.2225 C273.5514,32.2225 274.0072,32.3364 274.349,32.5317 C274.707,32.7271 274.8372,32.8898 274.9023,33.1828 C274.9512,33.492 274.9674,33.5734 275.0651,33.6711 C275.1628,33.785 275.3418,33.8501 275.5046,33.8501 C275.7161,33.8501 275.8952,33.7524 276.0254,33.5897 C276.1068,33.4757 276.1393,33.3455 276.1393,33.02 L276.1393,31.9784 C276.1393,31.6691 276.123,31.5715 276.0417,31.4575 C275.9277,31.2622 275.7324,31.1483 275.5046,31.1483 C275.293,31.1483 275.1465,31.2297 274.9837,31.4575 L274.8535,31.4087 Z " fill="#151515"/><text fill="#151515" font-family="Verdana" font-size="11.4583" lengthAdjust="spacing" textLength="26.0417" x="297.9167" y="38.7609">SOS</text><line style="stroke:#D3F198;stroke-width:1.0416666666666667;" x1="84.375" x2="506.25" y1="51.8799" y2="51.8799"/><rect fill="none" height="6.25" style="stroke:#6D8B32;stroke-width:1.0416666666666667;" width="6.25" x="91.6667" y="66.3615"/><text fill="#151515" font-family="Verdana" font-size="11.4583" lengthAdjust="spacing" textLength="311.4583" x="108.3333" y="71.8908">gl_str_SOS_taskDataBase: str_SOS_taskDataBase_t_</text><line style="stroke:#D3F198;stroke-width:1.0416666666666667;" x1="84.375" x2="506.25" y1="83.9681" y2="83.9681"/><ellipse cx="94.7917" cy="101.5747" fill="none" rx="3.125" ry="3.125" style="stroke:#6D8B32;stroke-width:1.0416666666666667;"/><text fill="#151515" font-family="Verdana" font-size="11.4583" lengthAdjust="spacing" textLength="204.1667" x="108.3333" y="103.979">SOS_init(void): enu_SOS_status_t_</text><ellipse cx="94.7917" cy="125.3296" fill="none" rx="3.125" ry="3.125" style="stroke:#6D8B32;stroke-width:1.0416666666666667;"/><text fill="#151515" font-family="Verdana" font-size="11.4583" lengthAdjust="spacing" textLength="219.7917" x="108.3333" y="127.7339">SOS_deinit(void): enu_SOS_status_t_</text><ellipse cx="94.7917" cy="149.0845" fill="none" rx="3.125" ry="3.125" style="stroke:#6D8B32;stroke-width:1.0416666666666667;"/><text fill="#151515" font-family="Verdana" font-size="11.4583" lengthAdjust="spacing" textLength="387.5" x="108.3333" y="151.4887">SOS_createTask(str_SOS_taskCreatet_*): enu_SOS_taskStatus_t_</text><ellipse cx="94.7917" cy="172.8394" fill="none" rx="3.125" ry="3.125" style="stroke:#6D8B32;stroke-width:1.0416666666666667;"/><text fill="#151515" font-family="Verdana" font-size="11.4583" lengthAdjust="spacing" textLength="326.0417" x="108.3333" y="175.2436">SOS_deleteTask(uint8_taskID): enu_SOS_taskStatus_t_</text><ellipse cx="94.7917" cy="196.5942" fill="none" rx="3.125" ry="3.125" style="stroke:#6D8B32;stroke-width:1.0416666666666667;"/><text fill="#151515" font-family="Verdana" font-size="11.4583" lengthAdjust="spacing" textLength="383.3333" x="108.3333" y="198.9985">SOS_modifyTask(str_SOS_taskCreatet_): enu_SOS_taskStatus_t_</text><ellipse cx="94.7917" cy="220.3491" fill="none" rx="3.125" ry="3.125" style="stroke:#6D8B32;stroke-width:1.0416666666666667;"/><text fill="#151515" font-family="Verdana" font-size="11.4583" lengthAdjust="spacing" textLength="206.25" x="108.3333" y="222.7534">SOS_run(): enu_SOS_taskStatus_t_</text><ellipse cx="94.7917" cy="244.104" fill="none" rx="3.125" ry="3.125" style="stroke:#6D8B32;stroke-width:1.0416666666666667;"/><text fill="#151515" font-family="Verdana" font-size="11.4583" lengthAdjust="spacing" textLength="230.2083" x="108.3333" y="246.5083">SOS_disable(): enu_SOS_taskStatus_t_</text></g><!--class enu_SOS_taskStatus_t_--><g id="elem_enu_SOS_taskStatus_t_"><rect codeLine="13" fill="url(#g1811gl0cfx69r0)" height="98.348" id="enu_SOS_taskStatus_t_" rx="20.8333" ry="20.8333" style="stroke:#D3F198;stroke-width:1.0416666666666667;" width="185.4167" x="436.9792" y="553.125"/><rect fill="url(#g1811gl0cfx69r0)" height="34.1715" rx="20.8333" ry="20.8333" style="stroke:url(#g1811gl0cfx69r0);stroke-width:1.0416666666666667;" width="185.4167" x="436.9792" y="553.125"/><rect fill="url(#g1811gl0cfx69r0)" height="20.8333" style="stroke:url(#g1811gl0cfx69r0);stroke-width:1.0416666666666667;" width="185.4167" x="436.9792" y="566.4632"/><rect codeLine="13" fill="none" height="98.348" id="enu_SOS_taskStatus_t_" rx="20.8333" ry="20.8333" style="stroke:#D3F198;stroke-width:1.0416666666666667;" width="185.4167" x="436.9792" y="553.125"/><ellipse cx="453.4375" cy="570.2108" fill="none" rx="10.4167" ry="10.4167" style="stroke:#6D8B32;stroke-width:1.0416666666666667;"/><path d="M452.7376,570.813 L453.7956,570.813 L453.7956,570.9106 C453.7956,571.2036 453.8281,571.3175 453.8932,571.4315 C454.0072,571.6268 454.2188,571.7244 454.4303,571.7244 C454.6094,571.7244 454.8047,571.6268 454.9186,571.464 C455.0163,571.3501 455.0326,571.2362 455.0326,570.9106 L455.0326,569.4946 C455.0326,569.3807 455.0326,569.3481 455.0326,569.2342 C454.9674,568.8761 454.7559,568.6646 454.4141,568.6646 C454.2188,568.6646 454.0397,568.7622 453.9095,568.925 C453.8281,569.0389 453.7956,569.1528 453.7956,569.4946 L453.7956,569.576 L452.7376,569.576 L452.7376,567.8182 L455.6673,567.8182 L455.6673,568.4367 C455.6673,568.7459 455.6836,568.8761 455.7487,568.9738 C455.8789,569.1691 456.0742,569.283 456.2858,569.283 C456.4811,569.283 456.6764,569.1854 456.8066,569.0226 C456.888,568.8924 456.9206,568.7948 456.9206,568.4367 L456.9206,566.5649 L451.3053,566.5649 C450.9798,566.5649 450.8822,566.5812 450.7682,566.6626 C450.5892,566.7765 450.4753,566.9881 450.4753,567.1997 C450.4753,567.395 450.5729,567.5741 450.7357,567.7043 C450.8496,567.8019 450.9798,567.8182 451.3053,567.8182 L451.4844,567.8182 L451.4844,572.6034 L451.3053,572.6034 C450.9961,572.6034 450.8822,572.6196 450.7682,572.701 C450.5892,572.8149 450.4753,573.0265 450.4753,573.2381 C450.4753,573.4334 450.5729,573.6125 450.7357,573.7264 C450.8333,573.8241 451.0124,573.8566 451.3053,573.8566 L457.181,573.8566 L457.181,571.9523 C457.181,571.6431 457.1647,571.5291 457.0996,571.4152 C456.9694,571.2362 456.7741,571.1222 456.5625,571.1222 C456.3672,571.1222 456.1719,571.2036 456.0579,571.3826 C455.9603,571.5129 455.944,571.6105 455.944,571.9523 L455.944,572.6034 L452.7376,572.6034 L452.7376,570.813 Z " fill="#151515"/><text fill="#151515" font-family="Verdana" font-size="11.4583" lengthAdjust="spacing" textLength="139.5833" x="472.6042" y="574.1776">enu_SOS_taskStatus_t_</text><line style="stroke:#D3F198;stroke-width:1.0416666666666667;" x1="438.0208" x2="621.3542" y1="587.2965" y2="587.2965"/><ellipse cx="448.4375" cy="604.9032" fill="none" rx="3.125" ry="3.125" style="stroke:#6D8B32;stroke-width:1.0416666666666667;"/><text fill="#151515" font-family="Verdana" font-size="11.4583" lengthAdjust="spacing" textLength="148.9583" x="461.9792" y="607.3074">SOS_TASK_AVAILABLE: 0</text><ellipse cx="448.4375" cy="628.658" fill="none" rx="3.125" ry="3.125" style="stroke:#6D8B32;stroke-width:1.0416666666666667;"/><text fill="#151515" font-family="Verdana" font-size="11.4583" lengthAdjust="spacing" textLength="138.5417" x="461.9792" y="631.0623">SOS_TASK_DELETED: 1</text><line style="stroke:#D3F198;stroke-width:1.0416666666666667;" x1="438.0208" x2="621.3542" y1="643.1396" y2="643.1396"/></g><!--class enu_SOS_status_t_--><g id="elem_enu_SOS_status_t_"><rect codeLine="18" fill="url(#g1811gl0cfx69r0)" height="145.8577" id="enu_SOS_status_t_" rx="20.8333" ry="20.8333" style="stroke:#D3F198;stroke-width:1.0416666666666667;" width="221.875" x="17.7083" y="320.8333"/><rect fill="url(#g1811gl0cfx69r0)" height="34.1715" rx="20.8333" ry="20.8333" style="stroke:url(#g1811gl0cfx69r0);stroke-width:1.0416666666666667;" width="221.875" x="17.7083" y="320.8333"/><rect fill="url(#g1811gl0cfx69r0)" height="20.8333" style="stroke:url(#g1811gl0cfx69r0);stroke-width:1.0416666666666667;" width="221.875" x="17.7083" y="334.1715"/><rect codeLine="18" fill="none" height="145.8577" id="enu_SOS_status_t_" rx="20.8333" ry="20.8333" style="stroke:#D3F198;stroke-width:1.0416666666666667;" width="221.875" x="17.7083" y="320.8333"/><ellipse cx="62.5" cy="337.9191" fill="none" rx="10.4167" ry="10.4167" style="stroke:#6D8B32;stroke-width:1.0416666666666667;"/><path d="M61.8001,338.5213 L62.8581,338.5213 L62.8581,338.619 C62.8581,338.9119 62.8906,339.0259 62.9557,339.1398 C63.0697,339.3351 63.2813,339.4328 63.4928,339.4328 C63.6719,339.4328 63.8672,339.3351 63.9811,339.1724 C64.0788,339.0584 64.0951,338.9445 64.0951,338.619 L64.0951,337.203 C64.0951,337.089 64.0951,337.0565 64.0951,336.9425 C64.0299,336.5845 63.8184,336.3729 63.4766,336.3729 C63.2813,336.3729 63.1022,336.4705 62.972,336.6333 C62.8906,336.7472 62.8581,336.8612 62.8581,337.203 L62.8581,337.2843 L61.8001,337.2843 L61.8001,335.5265 L64.7298,335.5265 L64.7298,336.145 C64.7298,336.4543 64.7461,336.5845 64.8112,336.6821 C64.9414,336.8774 65.1367,336.9914 65.3483,336.9914 C65.5436,336.9914 65.7389,336.8937 65.8691,336.731 C65.9505,336.6007 65.9831,336.5031 65.9831,336.145 L65.9831,334.2733 L60.3678,334.2733 C60.0423,334.2733 59.9447,334.2896 59.8307,334.3709 C59.6517,334.4849 59.5378,334.6965 59.5378,334.908 C59.5378,335.1034 59.6354,335.2824 59.7982,335.4126 C59.9121,335.5103 60.0423,335.5265 60.3678,335.5265 L60.5469,335.5265 L60.5469,340.3117 L60.3678,340.3117 C60.0586,340.3117 59.9447,340.328 59.8307,340.4093 C59.6517,340.5233 59.5378,340.7349 59.5378,340.9465 C59.5378,341.1418 59.6354,341.3208 59.7982,341.4347 C59.8958,341.5324 60.0749,341.5649 60.3678,341.5649 L66.2435,341.5649 L66.2435,339.6606 C66.2435,339.3514 66.2272,339.2375 66.1621,339.1235 C66.0319,338.9445 65.8366,338.8306 65.625,338.8306 C65.4297,338.8306 65.2344,338.9119 65.1204,339.091 C65.0228,339.2212 65.0065,339.3188 65.0065,339.6606 L65.0065,340.3117 L61.8001,340.3117 L61.8001,338.5213 Z " fill="#151515"/><text fill="#151515" font-family="Verdana" font-size="11.4583" lengthAdjust="spacing" textLength="113.5417" x="87.5" y="341.8859">enu_SOS_status_t_</text><line style="stroke:#D3F198;stroke-width:1.0416666666666667;" x1="18.75" x2="238.5417" y1="355.0049" y2="355.0049"/><ellipse cx="29.1667" cy="372.6115" fill="none" rx="3.125" ry="3.125" style="stroke:#6D8B32;stroke-width:1.0416666666666667;"/><text fill="#151515" font-family="Verdana" font-size="11.4583" lengthAdjust="spacing" textLength="143.75" x="42.7083" y="375.0158">SOS_STATUS_SUCCESS</text><ellipse cx="29.1667" cy="396.3664" fill="none" rx="3.125" ry="3.125" style="stroke:#6D8B32;stroke-width:1.0416666666666667;"/><text fill="#151515" font-family="Verdana" font-size="11.4583" lengthAdjust="spacing" textLength="178.125" x="42.7083" y="398.7707">SOS_STATUS_INVALID_STATE</text><ellipse cx="29.1667" cy="420.1213" fill="none" rx="3.125" ry="3.125" style="stroke:#6D8B32;stroke-width:1.0416666666666667;"/><text fill="#151515" font-family="Verdana" font-size="11.4583" lengthAdjust="spacing" textLength="185.4167" x="42.7083" y="422.5255">SOS_STATUS_DATABASE_FULL</text><ellipse cx="29.1667" cy="443.8761" fill="none" rx="3.125" ry="3.125" style="stroke:#6D8B32;stroke-width:1.0416666666666667;"/><text fill="#151515" font-family="Verdana" font-size="11.4583" lengthAdjust="spacing" textLength="173.9583" x="42.7083" y="446.2804">SOS_STATUS_TASK_NFOUND</text><line style="stroke:#D3F198;stroke-width:1.0416666666666667;" x1="18.75" x2="238.5417" y1="458.3577" y2="458.3577"/></g><!--class str_SOS_taskCreate_t_--><g id="elem_str_SOS_taskCreate_t_"><rect codeLine="25" fill="url(#g1811gl0cfx69r0)" height="145.8577" id="str_SOS_taskCreate_t_" rx="20.8333" ry="20.8333" style="stroke:#D3F198;stroke-width:1.0416666666666667;" width="209.375" x="190.625" y="529.1667"/><rect fill="url(#g1811gl0cfx69r0)" height="34.1715" rx="20.8333" ry="20.8333" style="stroke:url(#g1811gl0cfx69r0);stroke-width:1.0416666666666667;" width="209.375" x="190.625" y="529.1667"/><rect fill="url(#g1811gl0cfx69r0)" height="20.8333" style="stroke:url(#g1811gl0cfx69r0);stroke-width:1.0416666666666667;" width="209.375" x="190.625" y="542.5049"/><rect codeLine="25" fill="none" height="145.8577" id="str_SOS_taskCreate_t_" rx="20.8333" ry="20.8333" style="stroke:#D3F198;stroke-width:1.0416666666666667;" width="209.375" x="190.625" y="529.1667"/><ellipse cx="220.2083" cy="546.2524" fill="none" rx="10.4167" ry="10.4167" style="stroke:#6D8B32;stroke-width:1.0416666666666667;"/><path d="M223.0241,543.2576 C223.0241,542.9321 223.0078,542.8345 222.9427,542.7205 C222.8451,542.5415 222.6172,542.4438 222.4056,542.4438 C222.1615,542.4438 222.0475,542.5415 221.9173,542.8507 C221.4941,542.5741 220.9408,542.4438 220.306,542.4438 C218.7435,542.4438 217.5879,543.3879 217.5879,544.6411 C217.5879,545.3573 217.9785,546.0246 218.6133,546.3826 C219.0202,546.6105 219.4108,546.7407 220.2246,546.8709 C221.071,547.0174 221.2826,547.0662 221.543,547.2127 C221.8197,547.3592 221.9824,547.6034 221.9824,547.88 C221.9824,548.4172 221.2663,548.8241 220.3385,548.8241 C219.5085,548.8241 218.7272,548.466 218.597,548.0103 C218.4993,547.6685 218.4993,547.6685 218.418,547.5871 C218.304,547.4731 218.1413,547.408 217.9622,547.408 C217.7669,547.408 217.5716,547.5057 217.4577,547.6685 C217.36,547.7824 217.3438,547.9289 217.3438,548.2381 L217.3438,549.0682 C217.3438,549.6216 217.5391,549.882 217.9785,549.882 C218.1738,549.882 218.2552,549.8332 218.4831,549.589 C219.0853,549.9146 219.7526,550.0773 220.4199,550.0773 C222.1452,550.0773 223.2845,549.1984 223.2845,547.8963 C223.2845,547.2453 223.0566,546.7407 222.5521,546.3338 C222.1615,546.0246 221.6895,545.8455 220.599,545.6502 C219.6549,545.4712 219.6061,545.4549 219.3457,545.3247 C219.069,545.1782 218.89,544.9015 218.89,544.6411 C218.89,544.104 219.5085,543.6808 220.306,543.6808 C221.071,543.6808 221.6732,544.0226 221.7871,544.5272 C221.8685,544.9178 221.8685,544.9178 221.9661,545.0155 C222.0638,545.1294 222.2428,545.1945 222.4056,545.1945 C222.6009,545.1945 222.7799,545.0968 222.9102,544.9341 C223.0078,544.8039 223.0241,544.7062 223.0241,544.3644 L223.0241,543.2576 Z " fill="#151515"/><text fill="#151515" font-family="Verdana" font-size="11.4583" lengthAdjust="spacing" textLength="134.375" x="242.2917" y="550.2192">str_SOS_taskCreate_t_</text><line style="stroke:#D3F198;stroke-width:1.0416666666666667;" x1="191.6667" x2="398.9583" y1="563.3382" y2="563.3382"/><ellipse cx="202.0833" cy="580.9448" fill="none" rx="3.125" ry="3.125" style="stroke:#6D8B32;stroke-width:1.0416666666666667;"/><text fill="#151515" font-family="Verdana" font-size="11.4583" lengthAdjust="spacing" textLength="125" x="215.625" y="583.3491">uint8_taskID: uint8_t_</text><ellipse cx="202.0833" cy="604.6997" fill="none" rx="3.125" ry="3.125" style="stroke:#6D8B32;stroke-width:1.0416666666666667;"/><text fill="#151515" font-family="Verdana" font-size="11.4583" lengthAdjust="spacing" textLength="172.9167" x="215.625" y="607.104">uint8_taskPeriodicity: uint8_t_</text><ellipse cx="202.0833" cy="628.4546" fill="none" rx="3.125" ry="3.125" style="stroke:#6D8B32;stroke-width:1.0416666666666667;"/><text fill="#151515" font-family="Verdana" font-size="11.4583" lengthAdjust="spacing" textLength="152.0833" x="215.625" y="630.8589">uint8_taskPriority: uint8_t_</text><ellipse cx="202.0833" cy="652.2095" fill="none" rx="3.125" ry="3.125" style="stroke:#6D8B32;stroke-width:1.0416666666666667;"/><text fill="#151515" font-family="Verdana" font-size="11.4583" lengthAdjust="spacing" textLength="126.0417" x="215.625" y="654.6137">ptr_task: SOS_task_t_</text><line style="stroke:#D3F198;stroke-width:1.0416666666666667;" x1="191.6667" x2="398.9583" y1="666.6911" y2="666.6911"/></g><!--class str_SOS_taskDataBase_t_--><g id="elem_str_SOS_taskDataBase_t_"><rect codeLine="32" fill="url(#g1811gl0cfx69r0)" height="98.348" id="str_SOS_taskDataBase_t_" rx="20.8333" ry="20.8333" style="stroke:#D3F198;stroke-width:1.0416666666666667;" width="263.5417" x="351.0417" y="344.7917"/><rect fill="url(#g1811gl0cfx69r0)" height="34.1715" rx="20.8333" ry="20.8333" style="stroke:url(#g1811gl0cfx69r0);stroke-width:1.0416666666666667;" width="263.5417" x="351.0417" y="344.7917"/><rect fill="url(#g1811gl0cfx69r0)" height="20.8333" style="stroke:url(#g1811gl0cfx69r0);stroke-width:1.0416666666666667;" width="263.5417" x="351.0417" y="358.1299"/><rect codeLine="32" fill="none" height="98.348" id="str_SOS_taskDataBase_t_" rx="20.8333" ry="20.8333" style="stroke:#D3F198;stroke-width:1.0416666666666667;" width="263.5417" x="351.0417" y="344.7917"/><ellipse cx="397.3958" cy="361.8774" fill="none" rx="10.4167" ry="10.4167" style="stroke:#6D8B32;stroke-width:1.0416666666666667;"/><path d="M400.2116,358.8826 C400.2116,358.5571 400.1953,358.4595 400.1302,358.3455 C400.0326,358.1665 399.8047,358.0688 399.5931,358.0688 C399.349,358.0688 399.235,358.1665 399.1048,358.4757 C398.6816,358.1991 398.1283,358.0688 397.4935,358.0688 C395.931,358.0688 394.7754,359.0129 394.7754,360.2661 C394.7754,360.9823 395.166,361.6496 395.8008,362.0076 C396.2077,362.2355 396.5983,362.3657 397.4121,362.4959 C398.2585,362.6424 398.4701,362.6912 398.7305,362.8377 C399.0072,362.9842 399.1699,363.2284 399.1699,363.505 C399.1699,364.0422 398.4538,364.4491 397.526,364.4491 C396.696,364.4491 395.9147,364.091 395.7845,363.6353 C395.6868,363.2935 395.6868,363.2935 395.6055,363.2121 C395.4915,363.0981 395.3288,363.033 395.1497,363.033 C394.9544,363.033 394.7591,363.1307 394.6452,363.2935 C394.5475,363.4074 394.5313,363.5539 394.5313,363.8631 L394.5313,364.6932 C394.5313,365.2466 394.7266,365.507 395.166,365.507 C395.3613,365.507 395.4427,365.4582 395.6706,365.214 C396.2728,365.5396 396.9401,365.7023 397.6074,365.7023 C399.3327,365.7023 400.472,364.8234 400.472,363.5213 C400.472,362.8703 400.2441,362.3657 399.7396,361.9588 C399.349,361.6496 398.877,361.4705 397.7865,361.2752 C396.8424,361.0962 396.7936,361.0799 396.5332,360.9497 C396.2565,360.8032 396.0775,360.5265 396.0775,360.2661 C396.0775,359.729 396.696,359.3058 397.4935,359.3058 C398.2585,359.3058 398.8607,359.6476 398.9746,360.1522 C399.056,360.5428 399.056,360.5428 399.1536,360.6405 C399.2513,360.7544 399.4303,360.8195 399.5931,360.8195 C399.7884,360.8195 399.9674,360.7218 400.0977,360.5591 C400.1953,360.4289 400.2116,360.3312 400.2116,359.9894 L400.2116,358.8826 Z " fill="#151515"/><text fill="#151515" font-family="Verdana" font-size="11.4583" lengthAdjust="spacing" textLength="152.0833" x="422.3958" y="365.8442">str_SOS_taskDataBase_t_</text><line style="stroke:#D3F198;stroke-width:1.0416666666666667;" x1="352.0833" x2="613.5417" y1="378.9632" y2="378.9632"/><rect fill="none" height="6.25" style="stroke:#6D8B32;stroke-width:1.0416666666666667;" width="6.25" x="359.375" y="393.4448"/><text fill="#151515" font-family="Verdana" font-size="11.4583" lengthAdjust="spacing" textLength="227.0833" x="376.0417" y="398.9741">enu_taskState: enu_SOS_taskState_t_</text><ellipse cx="362.5" cy="420.3247" fill="none" rx="3.125" ry="3.125" style="stroke:#6D8B32;stroke-width:1.0416666666666667;"/><text fill="#151515" font-family="Verdana" font-size="11.4583" lengthAdjust="spacing" textLength="212.5" x="376.0417" y="422.729">* ptrstr_task: str_SOS_taskCreate_t_</text><line style="stroke:#D3F198;stroke-width:1.0416666666666667;" x1="352.0833" x2="613.5417" y1="434.8063" y2="434.8063"/></g><!--link SOS to enu_SOS_status_t_--><g id="link_SOS_enu_SOS_status_t_"><path codeLine="37" d="M216.8594,258.4583 C204.0167,278.0031 191.0188,297.7844 179.0917,315.9354 " fill="none" id="SOS-to-enu_SOS_status_t_" style="stroke:#B5E853;stroke-width:3.125;"/><polygon fill="#B5E853" points="176.0833,320.5146,184.7138,314.9678,178.9435,316.1619,177.7494,310.3915,176.0833,320.5146" style="stroke:#B5E853;stroke-width:3.125;"/></g><!--link SOS to str_SOS_taskCreate_t_--><g id="link_SOS_str_SOS_taskCreate_t_"><path codeLine="38" d="M295.3125,258.3344 C295.3125,341.8438 295.3125,451.0135 295.3125,523.4521 " fill="none" id="SOS-to-str_SOS_taskCreate_t_" style="stroke:#B5E853;stroke-width:3.125;"/><polygon fill="#B5E853" points="295.3125,529.0375,299.4792,519.6625,295.3125,523.8292,291.1458,519.6625,295.3125,529.0375" style="stroke:#B5E853;stroke-width:3.125;"/></g><!--link str_SOS_taskDataBase_t_ to str_SOS_taskCreate_t_--><g id="link_str_SOS_taskDataBase_t__str_SOS_taskCreate_t_"><path codeLine="39" d="M439.0885,442.8875 C416.9135,467.2802 389.4573,497.4823 364.5,524.9354 " fill="none" id="str_SOS_taskDataBase_t_-to-str_SOS_taskCreate_t_" style="stroke:#B5E853;stroke-width:3.125;"/><polygon fill="#B5E853" points="360.8365,528.9646,370.2262,524.8314,364.3403,525.1111,364.0606,519.2252,360.8365,528.9646" style="stroke:#B5E853;stroke-width:3.125;"/></g><!--link str_SOS_taskDataBase_t_ to enu_SOS_taskStatus_t_--><g id="link_str_SOS_taskDataBase_t__enu_SOS_taskStatus_t_"><path codeLine="40" d="M493.7438,442.8875 C500.8823,474.299 510.2104,515.3427 517.575,547.7458 " fill="none" id="str_SOS_taskDataBase_t_-to-enu_SOS_taskStatus_t_" style="stroke:#B5E853;stroke-width:3.125;"/><polygon fill="#B5E853" points="518.7396,552.8698,520.724,542.8043,517.5849,547.7911,512.5981,544.6519,518.7396,552.8698" style="stroke:#B5E853;stroke-width:3.125;"/></g><!--link SOS to str_SOS_taskDataBase_t_--><g id="link_SOS_str_SOS_taskDataBase_t_"><path codeLine="41" d="M383.5719,258.4583 C404.8542,287.2479 426.5135,316.549 444.1458,340.401 " fill="none" id="SOS-to-str_SOS_taskDataBase_t_" style="stroke:#B5E853;stroke-width:3.125;"/><polygon fill="#B5E853" points="447.3906,344.7896,445.1681,334.774,444.2945,340.6014,438.4671,339.7278,447.3906,344.7896" style="stroke:#B5E853;stroke-width:3.125;"/></g><!--SRC=[dLFFQyCW53ulVuMxTHs5xJPo6DXg8Ioq0vDUnQPkbQRfY2-3KlQ_JoNP335qx2H-F_oUp-SjxELHehqe3hAEYb9eZTYQNQ8PUY-vXfgR7GUX3qI0c0ijOnH2EN0KtLihLvM2oUT9xUvY9Al6IJK8QBGHjPgT_8kggAK0cPcOYP-vS33mgMUrE1k4bBArDwg29oTAo1NNyRHJR-VHq2lkkgacryfIMcnBEIxxYY937CFifJqbm-o5umrEKZnFQOmUV9pGb6QKnEXnS9Zs3hgn0CjmbfibNomeOwYF9giDJXFYjhHF4PpXEMQKB_CqxLEkXjLodQ-8pJTjR0f0mswsr_4V9-vsRfn-cLTPA_CmXOBpgCGewW7_OL8j6wCksn7XihnfjZ_0zgnhlXo-LZVqKnkYVtA2zxI11aIpsNDWt3icR1txR_zpX6SkL87d_0O0]--></g></svg>