<?xml version="1.0" encoding="us-ascii" standalone="no"?><svg xmlns="http://www.w3.org/2000/svg" xmlns:xlink="http://www.w3.org/1999/xlink" contentStyleType="text/css" height="3410.4167px" preserveAspectRatio="none" style="width:1094px;height:3410px;" version="1.1" viewBox="0 0 1094 3410" width="1094.7917px" zoomAndPan="magnify"><defs><filter height="300%" id="fl5248i8c2lxm" width="300%" x="-1" y="-1"><feGaussianBlur result="blurOut" stdDeviation="2.0833333333333335"/><feColorMatrix in="blurOut" result="blurOut2" type="matrix" values="0 0 0 0 0 0 0 0 0 0 0 0 0 0 0 0 0 0 .4 0"/><feOffset dx="4.166666666666667" dy="4.166666666666667" in="blurOut2" result="blurOut3"/><feBlend in="SourceGraphic" in2="blurOut3" mode="normal"/></filter><linearGradient id="gl5248i8c2lxm0" x1="50%" x2="50%" y1="0%" y2="100%"><stop offset="0%" stop-color="#FFFFFF"/><stop offset="100%" stop-color="#FFFFFF"/></linearGradient><linearGradient id="gl5248i8c2lxm1" x1="50%" x2="50%" y1="0%" y2="100%"><stop offset="0%" stop-color="#4DABF5"/><stop offset="100%" stop-color="#2196F3"/></linearGradient></defs><g><rect fill="#FFFFFF" filter="url(#fl5248i8c2lxm)" height="49.9674" style="stroke:#CCCCCC;stroke-width:1.0416666666666667;" width="10.4167" x="118.2292" y="2710.5143"/><rect fill="#FFFFFF" filter="url(#fl5248i8c2lxm)" height="49.9674" style="stroke:#CCCCCC;stroke-width:1.0416666666666667;" width="10.4167" x="118.2292" y="2919.7266"/><rect fill="#FFFFFF" filter="url(#fl5248i8c2lxm)" height="49.9674" style="stroke:#CCCCCC;stroke-width:1.0416666666666667;" width="10.4167" x="118.2292" y="3128.9388"/><rect fill="#FFFFFF" filter="url(#fl5248i8c2lxm)" height="249.8372" style="stroke:#CCCCCC;stroke-width:1.0416666666666667;" width="10.4167" x="316.1458" y="516.3411"/><rect fill="#FFFFFF" filter="url(#fl5248i8c2lxm)" height="156.1523" style="stroke:#CCCCCC;stroke-width:1.0416666666666667;" width="10.4167" x="316.1458" y="845.2474"/><rect fill="#FFFFFF" filter="url(#fl5248i8c2lxm)" height="26.0417" style="stroke:#CCCCCC;stroke-width:1.0416666666666667;" width="10.4167" x="321.3542" y="918.099"/><rect fill="#FFFFFF" filter="url(#fl5248i8c2lxm)" height="156.1523" style="stroke:#CCCCCC;stroke-width:1.0416666666666667;" width="10.4167" x="316.1458" y="1080.4688"/><rect fill="#FFFFFF" filter="url(#fl5248i8c2lxm)" height="26.0417" style="stroke:#CCCCCC;stroke-width:1.0416666666666667;" width="10.4167" x="321.3542" y="1153.3203"/><rect fill="#FFFFFF" filter="url(#fl5248i8c2lxm)" height="156.1523" style="stroke:#CCCCCC;stroke-width:1.0416666666666667;" width="10.4167" x="316.1458" y="1315.6901"/><rect fill="#FFFFFF" filter="url(#fl5248i8c2lxm)" height="26.0417" style="stroke:#CCCCCC;stroke-width:1.0416666666666667;" width="10.4167" x="321.3542" y="1388.5417"/><rect fill="#FFFFFF" filter="url(#fl5248i8c2lxm)" height="149.9023" style="stroke:#CCCCCC;stroke-width:1.0416666666666667;" width="10.4167" x="316.1458" y="1521.8099"/><rect fill="#FFFFFF" filter="url(#fl5248i8c2lxm)" height="149.9023" style="stroke:#CCCCCC;stroke-width:1.0416666666666667;" width="10.4167" x="316.1458" y="2115.1042"/><rect fill="#FFFFFF" filter="url(#fl5248i8c2lxm)" height="804.6224" style="stroke:#CCCCCC;stroke-width:1.0416666666666667;" width="10.4167" x="316.1458" y="2469.0104"/><rect fill="#FFFFFF" filter="url(#fl5248i8c2lxm)" height="61.4258" style="stroke:#CCCCCC;stroke-width:1.0416666666666667;" width="10.4167" x="321.3542" y="2527.3112"/><rect fill="#FFFFFF" filter="url(#fl5248i8c2lxm)" height="149.9023" style="stroke:#CCCCCC;stroke-width:1.0416666666666667;" width="10.4167" x="481.7708" y="316.4714"/><rect fill="#FFFFFF" filter="url(#fl5248i8c2lxm)" height="149.9023" style="stroke:#CCCCCC;stroke-width:1.0416666666666667;" width="10.4167" x="481.7708" y="1850.7161"/><rect fill="#FFFFFF" filter="url(#fl5248i8c2lxm)" height="149.9023" style="stroke:#CCCCCC;stroke-width:1.0416666666666667;" width="10.4167" x="645.3125" y="116.6016"/><rect fill="#FFFFFF" filter="url(#fl5248i8c2lxm)" height="49.9674" style="stroke:#CCCCCC;stroke-width:1.0416666666666667;" width="10.4167" x="800.5208" y="166.569"/><rect fill="#FFFFFF" filter="url(#fl5248i8c2lxm)" height="49.9674" style="stroke:#CCCCCC;stroke-width:1.0416666666666667;" width="10.4167" x="800.5208" y="366.4388"/><rect fill="#FFFFFF" filter="url(#fl5248i8c2lxm)" height="49.9674" style="stroke:#CCCCCC;stroke-width:1.0416666666666667;" width="10.4167" x="800.5208" y="1900.6836"/><rect fill="#FFFFFF" filter="url(#fl5248i8c2lxm)" height="49.9674" style="stroke:#CCCCCC;stroke-width:1.0416666666666667;" width="10.4167" x="961.9792" y="566.3086"/><rect fill="#FFFFFF" filter="url(#fl5248i8c2lxm)" height="49.9674" style="stroke:#CCCCCC;stroke-width:1.0416666666666667;" width="10.4167" x="961.9792" y="666.2435"/><rect fill="#FFFFFF" filter="url(#fl5248i8c2lxm)" height="49.9674" style="stroke:#CCCCCC;stroke-width:1.0416666666666667;" width="10.4167" x="961.9792" y="1571.7773"/><rect fill="#FFFFFF" filter="url(#fl5248i8c2lxm)" height="49.9674" style="stroke:#CCCCCC;stroke-width:1.0416666666666667;" width="10.4167" x="961.9792" y="2165.0716"/><rect fill="url(#gl5248i8c2lxm0)" filter="url(#fl5248i8c2lxm)" height="1639.388" rx="4.1667" ry="4.1667" style="stroke:#2196F3;stroke-width:1.0416666666666667;" width="1056.25" x="20.8333" y="1687.3372"/><rect fill="url(#gl5248i8c2lxm0)" filter="url(#fl5248i8c2lxm)" height="603.7109" rx="4.1667" ry="4.1667" style="stroke:#2196F3;stroke-width:1.0416666666666667;" width="1035.4167" x="31.25" y="1751.8555"/><rect fill="url(#gl5248i8c2lxm0)" filter="url(#fl5248i8c2lxm)" height="294.5638" rx="4.1667" ry="4.1667" style="stroke:#2196F3;stroke-width:1.0416666666666667;" width="1014.5833" x="41.6667" y="2016.2435"/><path d="M41.6667,2273.3398 L1056.25,2273.3398 L1056.25,2306.6406 A4.1667,4.1667 0 0 1 1052.0833,2310.8073 L45.8333,2310.8073 A4.1667,4.1667 0 0 1 41.6667,2306.6406 L41.6667,2273.3398 " fill="url(#gl5248i8c2lxm0)" style="stroke:none;stroke-width:1.0416666666666667;"/><path d="M31.25,2318.099 L1066.6667,2318.099 L1066.6667,2351.3997 A4.1667,4.1667 0 0 1 1062.5,2355.5664 L35.4167,2355.5664 A4.1667,4.1667 0 0 1 31.25,2351.3997 L31.25,2318.099 " fill="url(#gl5248i8c2lxm0)" style="stroke:none;stroke-width:1.0416666666666667;"/><rect fill="url(#gl5248i8c2lxm0)" filter="url(#fl5248i8c2lxm)" height="949.2839" rx="4.1667" ry="4.1667" style="stroke:#2196F3;stroke-width:1.0416666666666667;" width="1025" x="31.25" y="2370.1497"/><rect fill="url(#gl5248i8c2lxm0)" filter="url(#fl5248i8c2lxm)" height="194.6289" rx="4.1667" ry="4.1667" style="stroke:#2196F3;stroke-width:1.0416666666666667;" width="425" x="41.6667" y="2611.6536"/><path d="M41.6667,2768.8151 L466.6667,2768.8151 L466.6667,2802.1159 A4.1667,4.1667 0 0 1 462.5,2806.2826 L45.8333,2806.2826 A4.1667,4.1667 0 0 1 41.6667,2802.1159 L41.6667,2768.8151 " fill="url(#gl5248i8c2lxm0)" style="stroke:none;stroke-width:1.0416666666666667;"/><rect fill="url(#gl5248i8c2lxm0)" filter="url(#fl5248i8c2lxm)" height="194.6289" rx="4.1667" ry="4.1667" style="stroke:#2196F3;stroke-width:1.0416666666666667;" width="405.2083" x="41.6667" y="2820.8659"/><path d="M41.6667,2978.0273 L446.875,2978.0273 L446.875,3011.3281 A4.1667,4.1667 0 0 1 442.7083,3015.4948 L45.8333,3015.4948 A4.1667,4.1667 0 0 1 41.6667,3011.3281 L41.6667,2978.0273 " fill="url(#gl5248i8c2lxm0)" style="stroke:none;stroke-width:1.0416666666666667;"/><rect fill="url(#gl5248i8c2lxm0)" filter="url(#fl5248i8c2lxm)" height="194.6289" rx="4.1667" ry="4.1667" style="stroke:#2196F3;stroke-width:1.0416666666666667;" width="404.1667" x="41.6667" y="3030.0781"/><path d="M41.6667,3187.2396 L445.8333,3187.2396 L445.8333,3220.5404 A4.1667,4.1667 0 0 1 441.6667,3224.707 L45.8333,3224.707 A4.1667,4.1667 0 0 1 41.6667,3220.5404 L41.6667,3187.2396 " fill="url(#gl5248i8c2lxm0)" style="stroke:none;stroke-width:1.0416666666666667;"/><path d="M31.25,3281.9661 L1056.25,3281.9661 L1056.25,3315.2669 A4.1667,4.1667 0 0 1 1052.0833,3319.4336 L35.4167,3319.4336 A4.1667,4.1667 0 0 1 31.25,3315.2669 L31.25,3281.9661 " fill="url(#gl5248i8c2lxm0)" style="stroke:none;stroke-width:1.0416666666666667;"/><line style="stroke:#CCCCCC;stroke-width:1.0416666666666667;stroke-dasharray:5.0,5.0;" x1="122.9167" x2="122.9167" y1="64.5508" y2="3344.4336"/><line style="stroke:#CCCCCC;stroke-width:1.0416666666666667;stroke-dasharray:5.0,5.0;" x1="320.8333" x2="320.8333" y1="64.5508" y2="3344.4336"/><line style="stroke:#CCCCCC;stroke-width:1.0416666666666667;stroke-dasharray:5.0,5.0;" x1="486.4583" x2="486.4583" y1="64.5508" y2="3344.4336"/><line style="stroke:#CCCCCC;stroke-width:1.0416666666666667;stroke-dasharray:5.0,5.0;" x1="650" x2="650" y1="64.5508" y2="3344.4336"/><line style="stroke:#CCCCCC;stroke-width:1.0416666666666667;stroke-dasharray:5.0,5.0;" x1="805.2083" x2="805.2083" y1="64.5508" y2="3344.4336"/><line style="stroke:#CCCCCC;stroke-width:1.0416666666666667;stroke-dasharray:5.0,5.0;" x1="966.6667" x2="966.6667" y1="64.5508" y2="3344.4336"/><rect fill="url(#gl5248i8c2lxm1)" filter="url(#fl5248i8c2lxm)" height="49.9674" rx="4.1667" ry="4.1667" style="stroke:#2196F3;stroke-width:1.0416666666666667;" width="56.25" x="93.75" y="10.4167"/><text fill="#FFFFFF" font-family="Verdana" font-size="12.5" lengthAdjust="spacing" textLength="20.8333" x="111.4583" y="39.7278">APP</text><rect fill="url(#gl5248i8c2lxm1)" filter="url(#fl5248i8c2lxm)" height="49.9674" rx="4.1667" ry="4.1667" style="stroke:#2196F3;stroke-width:1.0416666666666667;" width="56.25" x="93.75" y="3343.3919"/><text fill="#FFFFFF" font-family="Verdana" font-size="12.5" lengthAdjust="spacing" textLength="20.8333" x="111.4583" y="3372.703">APP</text><rect fill="url(#gl5248i8c2lxm1)" filter="url(#fl5248i8c2lxm)" height="49.9674" rx="4.1667" ry="4.1667" style="stroke:#2196F3;stroke-width:1.0416666666666667;" width="62.5" x="288.5417" y="10.4167"/><text fill="#FFFFFF" font-family="Verdana" font-size="12.5" lengthAdjust="spacing" textLength="27.0833" x="306.25" y="39.7278">SOS</text><rect fill="url(#gl5248i8c2lxm1)" filter="url(#fl5248i8c2lxm)" height="49.9674" rx="4.1667" ry="4.1667" style="stroke:#2196F3;stroke-width:1.0416666666666667;" width="62.5" x="288.5417" y="3343.3919"/><text fill="#FFFFFF" font-family="Verdana" font-size="12.5" lengthAdjust="spacing" textLength="27.0833" x="306.25" y="3372.703">SOS</text><rect fill="url(#gl5248i8c2lxm1)" filter="url(#fl5248i8c2lxm)" height="49.9674" rx="4.1667" ry="4.1667" style="stroke:#2196F3;stroke-width:1.0416666666666667;" width="75" x="447.9167" y="10.4167"/><text fill="#FFFFFF" font-family="Verdana" font-size="12.5" lengthAdjust="spacing" textLength="39.5833" x="465.625" y="39.7278">Button</text><rect fill="url(#gl5248i8c2lxm1)" filter="url(#fl5248i8c2lxm)" height="49.9674" rx="4.1667" ry="4.1667" style="stroke:#2196F3;stroke-width:1.0416666666666667;" width="75" x="447.9167" y="3343.3919"/><text fill="#FFFFFF" font-family="Verdana" font-size="12.5" lengthAdjust="spacing" textLength="39.5833" x="465.625" y="3372.703">Button</text><rect fill="url(#gl5248i8c2lxm1)" filter="url(#fl5248i8c2lxm)" height="49.9674" rx="4.1667" ry="4.1667" style="stroke:#2196F3;stroke-width:1.0416666666666667;" width="58.3333" x="619.7917" y="10.4167"/><text fill="#FFFFFF" font-family="Verdana" font-size="12.5" lengthAdjust="spacing" textLength="22.9167" x="637.5" y="39.7278">LED</text><rect fill="url(#gl5248i8c2lxm1)" filter="url(#fl5248i8c2lxm)" height="49.9674" rx="4.1667" ry="4.1667" style="stroke:#2196F3;stroke-width:1.0416666666666667;" width="58.3333" x="619.7917" y="3343.3919"/><text fill="#FFFFFF" font-family="Verdana" font-size="12.5" lengthAdjust="spacing" textLength="22.9167" x="637.5" y="3372.703">LED</text><rect fill="url(#gl5248i8c2lxm1)" filter="url(#fl5248i8c2lxm)" height="49.9674" rx="4.1667" ry="4.1667" style="stroke:#2196F3;stroke-width:1.0416666666666667;" width="58.3333" x="775" y="10.4167"/><text fill="#FFFFFF" font-family="Verdana" font-size="12.5" lengthAdjust="spacing" textLength="22.9167" x="792.7083" y="39.7278">DIO</text><rect fill="url(#gl5248i8c2lxm1)" filter="url(#fl5248i8c2lxm)" height="49.9674" rx="4.1667" ry="4.1667" style="stroke:#2196F3;stroke-width:1.0416666666666667;" width="58.3333" x="775" y="3343.3919"/><text fill="#FFFFFF" font-family="Verdana" font-size="12.5" lengthAdjust="spacing" textLength="22.9167" x="792.7083" y="3372.703">DIO</text><rect fill="url(#gl5248i8c2lxm1)" filter="url(#fl5248i8c2lxm)" height="49.9674" rx="4.1667" ry="4.1667" style="stroke:#2196F3;stroke-width:1.0416666666666667;" width="70.8333" x="930.2083" y="10.4167"/><text fill="#FFFFFF" font-family="Verdana" font-size="12.5" lengthAdjust="spacing" textLength="35.4167" x="947.9167" y="39.7278">Timer</text><rect fill="url(#gl5248i8c2lxm1)" filter="url(#fl5248i8c2lxm)" height="49.9674" rx="4.1667" ry="4.1667" style="stroke:#2196F3;stroke-width:1.0416666666666667;" width="70.8333" x="930.2083" y="3343.3919"/><text fill="#FFFFFF" font-family="Verdana" font-size="12.5" lengthAdjust="spacing" textLength="35.4167" x="947.9167" y="3372.703">Timer</text><rect fill="#FFFFFF" filter="url(#fl5248i8c2lxm)" height="49.9674" style="stroke:#CCCCCC;stroke-width:1.0416666666666667;" width="10.4167" x="118.2292" y="2710.5143"/><rect fill="#FFFFFF" filter="url(#fl5248i8c2lxm)" height="49.9674" style="stroke:#CCCCCC;stroke-width:1.0416666666666667;" width="10.4167" x="118.2292" y="2919.7266"/><rect fill="#FFFFFF" filter="url(#fl5248i8c2lxm)" height="49.9674" style="stroke:#CCCCCC;stroke-width:1.0416666666666667;" width="10.4167" x="118.2292" y="3128.9388"/><rect fill="#FFFFFF" filter="url(#fl5248i8c2lxm)" height="249.8372" style="stroke:#CCCCCC;stroke-width:1.0416666666666667;" width="10.4167" x="316.1458" y="516.3411"/><rect fill="#FFFFFF" filter="url(#fl5248i8c2lxm)" height="156.1523" style="stroke:#CCCCCC;stroke-width:1.0416666666666667;" width="10.4167" x="316.1458" y="845.2474"/><rect fill="#FFFFFF" filter="url(#fl5248i8c2lxm)" height="26.0417" style="stroke:#CCCCCC;stroke-width:1.0416666666666667;" width="10.4167" x="321.3542" y="918.099"/><rect fill="#FFFFFF" filter="url(#fl5248i8c2lxm)" height="156.1523" style="stroke:#CCCCCC;stroke-width:1.0416666666666667;" width="10.4167" x="316.1458" y="1080.4688"/><rect fill="#FFFFFF" filter="url(#fl5248i8c2lxm)" height="26.0417" style="stroke:#CCCCCC;stroke-width:1.0416666666666667;" width="10.4167" x="321.3542" y="1153.3203"/><rect fill="#FFFFFF" filter="url(#fl5248i8c2lxm)" height="156.1523" style="stroke:#CCCCCC;stroke-width:1.0416666666666667;" width="10.4167" x="316.1458" y="1315.6901"/><rect fill="#FFFFFF" filter="url(#fl5248i8c2lxm)" height="26.0417" style="stroke:#CCCCCC;stroke-width:1.0416666666666667;" width="10.4167" x="321.3542" y="1388.5417"/><rect fill="#FFFFFF" filter="url(#fl5248i8c2lxm)" height="149.9023" style="stroke:#CCCCCC;stroke-width:1.0416666666666667;" width="10.4167" x="316.1458" y="1521.8099"/><rect fill="#FFFFFF" filter="url(#fl5248i8c2lxm)" height="149.9023" style="stroke:#CCCCCC;stroke-width:1.0416666666666667;" width="10.4167" x="316.1458" y="2115.1042"/><rect fill="#FFFFFF" filter="url(#fl5248i8c2lxm)" height="804.6224" style="stroke:#CCCCCC;stroke-width:1.0416666666666667;" width="10.4167" x="316.1458" y="2469.0104"/><rect fill="#FFFFFF" filter="url(#fl5248i8c2lxm)" height="61.4258" style="stroke:#CCCCCC;stroke-width:1.0416666666666667;" width="10.4167" x="321.3542" y="2527.3112"/><rect fill="#FFFFFF" filter="url(#fl5248i8c2lxm)" height="149.9023" style="stroke:#CCCCCC;stroke-width:1.0416666666666667;" width="10.4167" x="481.7708" y="316.4714"/><rect fill="#FFFFFF" filter="url(#fl5248i8c2lxm)" height="149.9023" style="stroke:#CCCCCC;stroke-width:1.0416666666666667;" width="10.4167" x="481.7708" y="1850.7161"/><rect fill="#FFFFFF" filter="url(#fl5248i8c2lxm)" height="149.9023" style="stroke:#CCCCCC;stroke-width:1.0416666666666667;" width="10.4167" x="645.3125" y="116.6016"/><rect fill="#FFFFFF" filter="url(#fl5248i8c2lxm)" height="49.9674" style="stroke:#CCCCCC;stroke-width:1.0416666666666667;" width="10.4167" x="800.5208" y="166.569"/><rect fill="#FFFFFF" filter="url(#fl5248i8c2lxm)" height="49.9674" style="stroke:#CCCCCC;stroke-width:1.0416666666666667;" width="10.4167" x="800.5208" y="366.4388"/><rect fill="#FFFFFF" filter="url(#fl5248i8c2lxm)" height="49.9674" style="stroke:#CCCCCC;stroke-width:1.0416666666666667;" width="10.4167" x="800.5208" y="1900.6836"/><rect fill="#FFFFFF" filter="url(#fl5248i8c2lxm)" height="49.9674" style="stroke:#CCCCCC;stroke-width:1.0416666666666667;" width="10.4167" x="961.9792" y="566.3086"/><rect fill="#FFFFFF" filter="url(#fl5248i8c2lxm)" height="49.9674" style="stroke:#CCCCCC;stroke-width:1.0416666666666667;" width="10.4167" x="961.9792" y="666.2435"/><rect fill="#FFFFFF" filter="url(#fl5248i8c2lxm)" height="49.9674" style="stroke:#CCCCCC;stroke-width:1.0416666666666667;" width="10.4167" x="961.9792" y="1571.7773"/><rect fill="#FFFFFF" filter="url(#fl5248i8c2lxm)" height="49.9674" style="stroke:#CCCCCC;stroke-width:1.0416666666666667;" width="10.4167" x="961.9792" y="2165.0716"/><polygon fill="#2196F3" points="632.8125,112.4349,643.2292,116.6016,632.8125,120.7682,636.9792,116.6016" style="stroke:#2196F3;stroke-width:1.0416666666666667;"/><line style="stroke:#2196F3;stroke-width:3.125;" x1="123.4375" x2="639.0625" y1="116.6016" y2="116.6016"/><text fill="#222222" font-family="Verdana" font-size="12.5" lengthAdjust="spacing" textLength="81.25" x="141.1458" y="101.1536">Initalize LEDs</text><polygon fill="#2196F3" points="788.0208,162.4023,798.4375,166.569,788.0208,170.7357,792.1875,166.569" style="stroke:#2196F3;stroke-width:1.0416666666666667;"/><line style="stroke:#2196F3;stroke-width:3.125;" x1="655.7292" x2="794.2708" y1="166.569" y2="166.569"/><text fill="#222222" font-family="Verdana" font-size="12.5" lengthAdjust="spacing" textLength="73.9583" x="673.4375" y="151.121">Initalize DIO</text><polygon fill="#2196F3" points="667.1875,212.3698,656.7708,216.5365,667.1875,220.7031,663.0208,216.5365" style="stroke:#2196F3;stroke-width:1.0416666666666667;"/><line style="stroke:#2196F3;stroke-width:3.125;stroke-dasharray:2.0,2.0;" x1="660.9375" x2="804.6875" y1="216.5365" y2="216.5365"/><text fill="#222222" font-family="Verdana" font-size="12.5" lengthAdjust="spacing" textLength="47.9167" x="683.8542" y="201.0885">DIO_OK</text><polygon fill="#2196F3" points="134.8958,262.3372,124.4792,266.5039,134.8958,270.6706,130.7292,266.5039" style="stroke:#2196F3;stroke-width:1.0416666666666667;"/><line style="stroke:#2196F3;stroke-width:3.125;stroke-dasharray:2.0,2.0;" x1="128.6458" x2="649.4792" y1="266.5039" y2="266.5039"/><text fill="#222222" font-family="Verdana" font-size="12.5" lengthAdjust="spacing" textLength="47.9167" x="151.5625" y="251.0559">LED_OK</text><polygon fill="#2196F3" points="469.2708,312.3047,479.6875,316.4714,469.2708,320.638,473.4375,316.4714" style="stroke:#2196F3;stroke-width:1.0416666666666667;"/><line style="stroke:#2196F3;stroke-width:3.125;" x1="123.4375" x2="475.5208" y1="316.4714" y2="316.4714"/><text fill="#222222" font-family="Verdana" font-size="12.5" lengthAdjust="spacing" textLength="101.0417" x="141.1458" y="301.0234">Initialize Buttons</text><polygon fill="#2196F3" points="788.0208,362.2721,798.4375,366.4388,788.0208,370.6055,792.1875,366.4388" style="stroke:#2196F3;stroke-width:1.0416666666666667;"/><line style="stroke:#2196F3;stroke-width:3.125;" x1="492.1875" x2="794.2708" y1="366.4388" y2="366.4388"/><text fill="#222222" font-family="Verdana" font-size="12.5" lengthAdjust="spacing" textLength="77.0833" x="509.8958" y="350.9908">Initialize DIO</text><polygon fill="#2196F3" points="503.6458,412.2396,493.2292,416.4063,503.6458,420.5729,499.4792,416.4063" style="stroke:#2196F3;stroke-width:1.0416666666666667;"/><line style="stroke:#2196F3;stroke-width:3.125;stroke-dasharray:2.0,2.0;" x1="497.3958" x2="804.6875" y1="416.4063" y2="416.4063"/><text fill="#222222" font-family="Verdana" font-size="12.5" lengthAdjust="spacing" textLength="47.9167" x="520.3125" y="400.9583">DIO_OK</text><polygon fill="#2196F3" points="134.8958,462.207,124.4792,466.3737,134.8958,470.5404,130.7292,466.3737" style="stroke:#2196F3;stroke-width:1.0416666666666667;"/><line style="stroke:#2196F3;stroke-width:3.125;stroke-dasharray:2.0,2.0;" x1="128.6458" x2="485.9375" y1="466.3737" y2="466.3737"/><text fill="#222222" font-family="Verdana" font-size="12.5" lengthAdjust="spacing" textLength="76.0417" x="151.5625" y="450.9257">BUTTON_OK</text><polygon fill="#2196F3" points="303.6458,512.1745,314.0625,516.3411,303.6458,520.5078,307.8125,516.3411" style="stroke:#2196F3;stroke-width:1.0416666666666667;"/><line style="stroke:#2196F3;stroke-width:3.125;" x1="123.4375" x2="309.8958" y1="516.3411" y2="516.3411"/><text fill="#222222" font-family="Verdana" font-size="12.5" lengthAdjust="spacing" textLength="81.25" x="141.1458" y="500.8931">Initialize SOS</text><polygon fill="#2196F3" points="949.4792,562.1419,959.8958,566.3086,949.4792,570.4753,953.6458,566.3086" style="stroke:#2196F3;stroke-width:1.0416666666666667;"/><line style="stroke:#2196F3;stroke-width:3.125;" x1="326.5625" x2="955.7292" y1="566.3086" y2="566.3086"/><text fill="#222222" font-family="Verdana" font-size="12.5" lengthAdjust="spacing" textLength="86.4583" x="344.2708" y="550.8606">Initialize timer</text><polygon fill="#2196F3" points="338.0208,612.1094,327.6042,616.276,338.0208,620.4427,333.8542,616.276" style="stroke:#2196F3;stroke-width:1.0416666666666667;"/><line style="stroke:#2196F3;stroke-width:3.125;stroke-dasharray:2.0,2.0;" x1="331.7708" x2="966.1458" y1="616.276" y2="616.276"/><text fill="#222222" font-family="Verdana" font-size="12.5" lengthAdjust="spacing" textLength="60.4167" x="354.6875" y="600.828">TIMER_OK</text><polygon fill="#2196F3" points="949.4792,662.0768,959.8958,666.2435,949.4792,670.4102,953.6458,666.2435" style="stroke:#2196F3;stroke-width:1.0416666666666667;"/><line style="stroke:#2196F3;stroke-width:3.125;" x1="326.5625" x2="955.7292" y1="666.2435" y2="666.2435"/><text fill="#222222" font-family="Verdana" font-size="12.5" lengthAdjust="spacing" textLength="131.25" x="344.2708" y="650.7955">set tick time = 20ms</text><polygon fill="#2196F3" points="338.0208,712.0443,327.6042,716.2109,338.0208,720.3776,333.8542,716.2109" style="stroke:#2196F3;stroke-width:1.0416666666666667;"/><line style="stroke:#2196F3;stroke-width:3.125;stroke-dasharray:2.0,2.0;" x1="331.7708" x2="966.1458" y1="716.2109" y2="716.2109"/><text fill="#222222" font-family="Verdana" font-size="12.5" lengthAdjust="spacing" textLength="60.4167" x="354.6875" y="700.7629">TIMER_OK</text><polygon fill="#2196F3" points="134.8958,762.0117,124.4792,766.1784,134.8958,770.3451,130.7292,766.1784" style="stroke:#2196F3;stroke-width:1.0416666666666667;"/><line style="stroke:#2196F3;stroke-width:3.125;stroke-dasharray:2.0,2.0;" x1="128.6458" x2="320.3125" y1="766.1784" y2="766.1784"/><text fill="#222222" font-family="Verdana" font-size="12.5" lengthAdjust="spacing" textLength="52.0833" x="151.5625" y="750.7304">SOS_OK</text><polygon fill="#2196F3" points="303.6458,841.0807,314.0625,845.2474,303.6458,849.4141,307.8125,845.2474" style="stroke:#2196F3;stroke-width:1.0416666666666667;"/><line style="stroke:#2196F3;stroke-width:3.125;" x1="123.4375" x2="309.8958" y1="845.2474" y2="845.2474"/><text fill="#222222" font-family="Verdana" font-size="12.5" lengthAdjust="spacing" textLength="139.5833" x="141.1458" y="800.6978">create task LED0Task,</text><text fill="#222222" font-family="Verdana" font-size="12.5" lengthAdjust="spacing" textLength="112.5" x="141.1458" y="815.2486">Periodicity = 300,</text><text fill="#222222" font-family="Verdana" font-size="12.5" lengthAdjust="spacing" textLength="69.7917" x="141.1458" y="829.7994">Priority = 2</text><line style="stroke:#2196F3;stroke-width:3.125;" x1="326.5625" x2="375.5208" y1="904.5573" y2="904.5573"/><line style="stroke:#2196F3;stroke-width:3.125;" x1="375.5208" x2="375.5208" y1="904.5573" y2="918.099"/><line style="stroke:#2196F3;stroke-width:3.125;" x1="332.8125" x2="375.5208" y1="918.099" y2="918.099"/><polygon fill="#2196F3" points="343.2292,913.9323,332.8125,918.099,343.2292,922.2656,339.0625,918.099" style="stroke:#2196F3;stroke-width:1.0416666666666667;"/><text fill="#222222" font-family="Verdana" font-size="12.5" lengthAdjust="spacing" textLength="96.875" x="349.4792" y="874.5585">save task in DB</text><text fill="#222222" font-family="Verdana" font-size="12.5" lengthAdjust="spacing" textLength="105.2083" x="349.4792" y="889.1093">+ State = READY</text><line style="stroke:#2196F3;stroke-width:3.125;stroke-dasharray:2.0,2.0;" x1="331.7708" x2="375.5208" y1="943.099" y2="943.099"/><line style="stroke:#2196F3;stroke-width:3.125;stroke-dasharray:2.0,2.0;" x1="375.5208" x2="375.5208" y1="943.099" y2="956.6406"/><line style="stroke:#2196F3;stroke-width:3.125;stroke-dasharray:2.0,2.0;" x1="326.5625" x2="375.5208" y1="956.6406" y2="956.6406"/><polygon fill="#2196F3" points="336.9792,952.474,326.5625,956.6406,336.9792,960.8073,332.8125,956.6406" style="stroke:#2196F3;stroke-width:1.0416666666666667;"/><polygon fill="#2196F3" points="134.8958,997.2331,124.4792,1001.3997,134.8958,1005.5664,130.7292,1001.3997" style="stroke:#2196F3;stroke-width:1.0416666666666667;"/><line style="stroke:#2196F3;stroke-width:3.125;stroke-dasharray:2.0,2.0;" x1="128.6458" x2="320.3125" y1="1001.3997" y2="1001.3997"/><text fill="#222222" font-family="Verdana" font-size="12.5" lengthAdjust="spacing" textLength="58.3333" x="151.5625" y="985.9517">SUCCESS</text><polygon fill="#2196F3" points="303.6458,1076.3021,314.0625,1080.4688,303.6458,1084.6354,307.8125,1080.4688" style="stroke:#2196F3;stroke-width:1.0416666666666667;"/><line style="stroke:#2196F3;stroke-width:3.125;" x1="123.4375" x2="309.8958" y1="1080.4688" y2="1080.4688"/><text fill="#222222" font-family="Verdana" font-size="12.5" lengthAdjust="spacing" textLength="138.5417" x="141.1458" y="1035.9192">create task LED1Task,</text><text fill="#222222" font-family="Verdana" font-size="12.5" lengthAdjust="spacing" textLength="112.5" x="141.1458" y="1050.47">Periodicity = 500,</text><text fill="#222222" font-family="Verdana" font-size="12.5" lengthAdjust="spacing" textLength="68.75" x="141.1458" y="1065.0208">Priority = 1</text><line style="stroke:#2196F3;stroke-width:3.125;" x1="326.5625" x2="375.5208" y1="1139.7786" y2="1139.7786"/><line style="stroke:#2196F3;stroke-width:3.125;" x1="375.5208" x2="375.5208" y1="1139.7786" y2="1153.3203"/><line style="stroke:#2196F3;stroke-width:3.125;" x1="332.8125" x2="375.5208" y1="1153.3203" y2="1153.3203"/><polygon fill="#2196F3" points="343.2292,1149.1536,332.8125,1153.3203,343.2292,1157.487,339.0625,1153.3203" style="stroke:#2196F3;stroke-width:1.0416666666666667;"/><text fill="#222222" font-family="Verdana" font-size="12.5" lengthAdjust="spacing" textLength="96.875" x="349.4792" y="1109.7799">save task in DB</text><text fill="#222222" font-family="Verdana" font-size="12.5" lengthAdjust="spacing" textLength="105.2083" x="349.4792" y="1124.3306">+ State = READY</text><line style="stroke:#2196F3;stroke-width:3.125;stroke-dasharray:2.0,2.0;" x1="331.7708" x2="375.5208" y1="1178.3203" y2="1178.3203"/><line style="stroke:#2196F3;stroke-width:3.125;stroke-dasharray:2.0,2.0;" x1="375.5208" x2="375.5208" y1="1178.3203" y2="1191.862"/><line style="stroke:#2196F3;stroke-width:3.125;stroke-dasharray:2.0,2.0;" x1="326.5625" x2="375.5208" y1="1191.862" y2="1191.862"/><polygon fill="#2196F3" points="336.9792,1187.6953,326.5625,1191.862,336.9792,1196.0286,332.8125,1191.862" style="stroke:#2196F3;stroke-width:1.0416666666666667;"/><polygon fill="#2196F3" points="134.8958,1232.4544,124.4792,1236.6211,134.8958,1240.7878,130.7292,1236.6211" style="stroke:#2196F3;stroke-width:1.0416666666666667;"/><line style="stroke:#2196F3;stroke-width:3.125;stroke-dasharray:2.0,2.0;" x1="128.6458" x2="320.3125" y1="1236.6211" y2="1236.6211"/><text fill="#222222" font-family="Verdana" font-size="12.5" lengthAdjust="spacing" textLength="58.3333" x="151.5625" y="1221.1731">SUCCESS</text><polygon fill="#2196F3" points="303.6458,1311.5234,314.0625,1315.6901,303.6458,1319.8568,307.8125,1315.6901" style="stroke:#2196F3;stroke-width:1.0416666666666667;"/><line style="stroke:#2196F3;stroke-width:3.125;" x1="123.4375" x2="309.8958" y1="1315.6901" y2="1315.6901"/><text fill="#222222" font-family="Verdana" font-size="12.5" lengthAdjust="spacing" textLength="147.9167" x="141.1458" y="1271.1405">create task buttonTask,</text><text fill="#222222" font-family="Verdana" font-size="12.5" lengthAdjust="spacing" textLength="100" x="141.1458" y="1285.6913">Periodicity = 20</text><text fill="#222222" font-family="Verdana" font-size="12.5" lengthAdjust="spacing" textLength="66.6667" x="141.1458" y="1300.2421">Priorty = 3</text><line style="stroke:#2196F3;stroke-width:3.125;" x1="326.5625" x2="375.5208" y1="1375" y2="1375"/><line style="stroke:#2196F3;stroke-width:3.125;" x1="375.5208" x2="375.5208" y1="1375" y2="1388.5417"/><line style="stroke:#2196F3;stroke-width:3.125;" x1="332.8125" x2="375.5208" y1="1388.5417" y2="1388.5417"/><polygon fill="#2196F3" points="343.2292,1384.375,332.8125,1388.5417,343.2292,1392.7083,339.0625,1388.5417" style="stroke:#2196F3;stroke-width:1.0416666666666667;"/><text fill="#222222" font-family="Verdana" font-size="12.5" lengthAdjust="spacing" textLength="96.875" x="349.4792" y="1345.0012">save task in DB</text><text fill="#222222" font-family="Verdana" font-size="12.5" lengthAdjust="spacing" textLength="105.2083" x="349.4792" y="1359.552">+ State = READY</text><line style="stroke:#2196F3;stroke-width:3.125;stroke-dasharray:2.0,2.0;" x1="331.7708" x2="375.5208" y1="1413.5417" y2="1413.5417"/><line style="stroke:#2196F3;stroke-width:3.125;stroke-dasharray:2.0,2.0;" x1="375.5208" x2="375.5208" y1="1413.5417" y2="1427.0833"/><line style="stroke:#2196F3;stroke-width:3.125;stroke-dasharray:2.0,2.0;" x1="326.5625" x2="375.5208" y1="1427.0833" y2="1427.0833"/><polygon fill="#2196F3" points="336.9792,1422.9167,326.5625,1427.0833,336.9792,1431.25,332.8125,1427.0833" style="stroke:#2196F3;stroke-width:1.0416666666666667;"/><polygon fill="#2196F3" points="134.8958,1467.6758,124.4792,1471.8424,134.8958,1476.0091,130.7292,1471.8424" style="stroke:#2196F3;stroke-width:1.0416666666666667;"/><line style="stroke:#2196F3;stroke-width:3.125;stroke-dasharray:2.0,2.0;" x1="128.6458" x2="320.3125" y1="1471.8424" y2="1471.8424"/><text fill="#222222" font-family="Verdana" font-size="12.5" lengthAdjust="spacing" textLength="58.3333" x="151.5625" y="1456.3944">SUCCESS</text><polygon fill="#2196F3" points="303.6458,1517.6432,314.0625,1521.8099,303.6458,1525.9766,307.8125,1521.8099" style="stroke:#2196F3;stroke-width:1.0416666666666667;"/><line style="stroke:#2196F3;stroke-width:3.125;" x1="123.4375" x2="309.8958" y1="1521.8099" y2="1521.8099"/><text fill="#222222" font-family="Verdana" font-size="12.5" lengthAdjust="spacing" textLength="86.4583" x="141.1458" y="1506.3619">run scheduler</text><polygon fill="#2196F3" points="949.4792,1567.6107,959.8958,1571.7773,949.4792,1575.944,953.6458,1571.7773" style="stroke:#2196F3;stroke-width:1.0416666666666667;"/><line style="stroke:#2196F3;stroke-width:3.125;" x1="326.5625" x2="955.7292" y1="1571.7773" y2="1571.7773"/><text fill="#222222" font-family="Verdana" font-size="12.5" lengthAdjust="spacing" textLength="64.5833" x="344.2708" y="1556.3293">start timer</text><polygon fill="#2196F3" points="338.0208,1617.5781,327.6042,1621.7448,338.0208,1625.9115,333.8542,1621.7448" style="stroke:#2196F3;stroke-width:1.0416666666666667;"/><line style="stroke:#2196F3;stroke-width:3.125;stroke-dasharray:2.0,2.0;" x1="331.7708" x2="966.1458" y1="1621.7448" y2="1621.7448"/><text fill="#222222" font-family="Verdana" font-size="12.5" lengthAdjust="spacing" textLength="60.4167" x="354.6875" y="1606.2968">TIMER_OK</text><polygon fill="#2196F3" points="134.8958,1667.5456,124.4792,1671.7122,134.8958,1675.8789,130.7292,1671.7122" style="stroke:#2196F3;stroke-width:1.0416666666666667;"/><line style="stroke:#2196F3;stroke-width:3.125;stroke-dasharray:2.0,2.0;" x1="128.6458" x2="320.3125" y1="1671.7122" y2="1671.7122"/><text fill="#222222" font-family="Verdana" font-size="12.5" lengthAdjust="spacing" textLength="58.3333" x="151.5625" y="1656.2642">SUCCESS</text><path d="M25,1687.3372 L120.8333,1687.3372 L120.8333,1714.388 L110.4167,1724.8047 L20.8333,1724.8047 L20.8333,1691.5039 A4.1667,4.1667 0 0 1 25,1687.3372 " fill="#FFFFFF" style="stroke:#666666;stroke-width:1.0416666666666667;"/><rect fill="none" height="1639.388" rx="4.1667" ry="4.1667" style="stroke:#2196F3;stroke-width:1.0416666666666667;" width="1056.25" x="20.8333" y="1687.3372"/><text fill="#9C27B0" font-family="Verdana" font-size="12.5" font-weight="bold" lengthAdjust="spacing" textLength="32.2917" x="46.875" y="1710.3984">loop</text><text fill="#222222" font-family="Verdana" font-size="12.5" font-weight="bold" lengthAdjust="spacing" textLength="64.5833" x="146.875" y="1711.44">[While 1]</text><path d="M35.4167,1751.8555 L119.7917,1751.8555 L119.7917,1778.9063 L109.375,1789.3229 L31.25,1789.3229 L31.25,1756.0221 A4.1667,4.1667 0 0 1 35.4167,1751.8555 " fill="#FFFFFF" style="stroke:#666666;stroke-width:1.0416666666666667;"/><rect fill="none" height="603.7109" rx="4.1667" ry="4.1667" style="stroke:#2196F3;stroke-width:1.0416666666666667;" width="1035.4167" x="31.25" y="1751.8555"/><text fill="#9C27B0" font-family="Verdana" font-size="12.5" font-weight="bold" lengthAdjust="spacing" textLength="20.8333" x="57.2917" y="1774.9166">alt</text><text fill="#222222" font-family="Verdana" font-size="12.5" font-weight="bold" lengthAdjust="spacing" textLength="122.9167" x="145.8333" y="1775.9583">[App is stopped]</text><polygon fill="#2196F3" points="469.2708,1846.5495,479.6875,1850.7161,469.2708,1854.8828,473.4375,1850.7161" style="stroke:#2196F3;stroke-width:1.0416666666666667;"/><line style="stroke:#2196F3;stroke-width:3.125;" x1="123.4375" x2="475.5208" y1="1850.7161" y2="1850.7161"/><text fill="#222222" font-family="Verdana" font-size="12.5" lengthAdjust="spacing" textLength="111.4583" x="141.1458" y="1835.2681">get button 1 state</text><polygon fill="#2196F3" points="788.0208,1896.5169,798.4375,1900.6836,788.0208,1904.8503,792.1875,1900.6836" style="stroke:#2196F3;stroke-width:1.0416666666666667;"/><line style="stroke:#2196F3;stroke-width:3.125;" x1="492.1875" x2="794.2708" y1="1900.6836" y2="1900.6836"/><text fill="#222222" font-family="Verdana" font-size="12.5" lengthAdjust="spacing" textLength="81.25" x="509.8958" y="1885.2356">get pin value</text><polygon fill="#2196F3" points="503.6458,1946.4844,493.2292,1950.651,503.6458,1954.8177,499.4792,1950.651" style="stroke:#2196F3;stroke-width:1.0416666666666667;"/><line style="stroke:#2196F3;stroke-width:3.125;stroke-dasharray:2.0,2.0;" x1="497.3958" x2="804.6875" y1="1950.651" y2="1950.651"/><text fill="#222222" font-family="Verdana" font-size="12.5" lengthAdjust="spacing" textLength="56.25" x="520.3125" y="1935.203">pin value</text><polygon fill="#2196F3" points="134.8958,1996.4518,124.4792,2000.6185,134.8958,2004.7852,130.7292,2000.6185" style="stroke:#2196F3;stroke-width:1.0416666666666667;"/><line style="stroke:#2196F3;stroke-width:3.125;stroke-dasharray:2.0,2.0;" x1="128.6458" x2="485.9375" y1="2000.6185" y2="2000.6185"/><text fill="#222222" font-family="Verdana" font-size="12.5" lengthAdjust="spacing" textLength="76.0417" x="151.5625" y="1985.1705">button State</text><path d="M45.8333,2016.2435 L130.2083,2016.2435 L130.2083,2043.2943 L119.7917,2053.7109 L41.6667,2053.7109 L41.6667,2020.4102 A4.1667,4.1667 0 0 1 45.8333,2016.2435 " fill="#FFFFFF" style="stroke:#666666;stroke-width:1.0416666666666667;"/><rect fill="none" height="294.5638" rx="4.1667" ry="4.1667" style="stroke:#2196F3;stroke-width:1.0416666666666667;" width="1014.5833" x="41.6667" y="2016.2435"/><text fill="#9C27B0" font-family="Verdana" font-size="12.5" font-weight="bold" lengthAdjust="spacing" textLength="20.8333" x="67.7083" y="2039.3046">alt</text><text fill="#222222" font-family="Verdana" font-size="12.5" font-weight="bold" lengthAdjust="spacing" textLength="129.1667" x="156.25" y="2040.3463">[button pressed]</text><polygon fill="#2196F3" points="303.6458,2110.9375,314.0625,2115.1042,303.6458,2119.2708,307.8125,2115.1042" style="stroke:#2196F3;stroke-width:1.0416666666666667;"/><line style="stroke:#2196F3;stroke-width:3.125;" x1="123.4375" x2="309.8958" y1="2115.1042" y2="2115.1042"/><text fill="#222222" font-family="Verdana" font-size="12.5" lengthAdjust="spacing" textLength="53.125" x="141.1458" y="2099.6562">Run SOS</text><polygon fill="#2196F3" points="949.4792,2160.9049,959.8958,2165.0716,949.4792,2169.2383,953.6458,2165.0716" style="stroke:#2196F3;stroke-width:1.0416666666666667;"/><line style="stroke:#2196F3;stroke-width:3.125;" x1="326.5625" x2="955.7292" y1="2165.0716" y2="2165.0716"/><text fill="#222222" font-family="Verdana" font-size="12.5" lengthAdjust="spacing" textLength="67.7083" x="344.2708" y="2149.6236">Timer start</text><polygon fill="#2196F3" points="338.0208,2210.8724,327.6042,2215.0391,338.0208,2219.2057,333.8542,2215.0391" style="stroke:#2196F3;stroke-width:1.0416666666666667;"/><line style="stroke:#2196F3;stroke-width:3.125;stroke-dasharray:2.0,2.0;" x1="331.7708" x2="966.1458" y1="2215.0391" y2="2215.0391"/><text fill="#222222" font-family="Verdana" font-size="12.5" lengthAdjust="spacing" textLength="60.4167" x="354.6875" y="2199.5911">TIMER_OK</text><polygon fill="#2196F3" points="134.8958,2260.8398,124.4792,2265.0065,134.8958,2269.1732,130.7292,2265.0065" style="stroke:#2196F3;stroke-width:1.0416666666666667;"/><line style="stroke:#2196F3;stroke-width:3.125;stroke-dasharray:2.0,2.0;" x1="128.6458" x2="320.3125" y1="2265.0065" y2="2265.0065"/><text fill="#222222" font-family="Verdana" font-size="12.5" lengthAdjust="spacing" textLength="58.3333" x="151.5625" y="2249.5585">SUCCESS</text><line style="stroke:#2196F3;stroke-width:1.0416666666666667;stroke-dasharray:2.0,2.0;" x1="41.6667" x2="1056.25" y1="2274.3815" y2="2274.3815"/><text fill="#222222" font-family="Verdana" font-size="12.5" font-weight="bold" lengthAdjust="spacing" textLength="176.0417" x="57.2917" y="2296.401">[button is not pressed]</text><line style="stroke:#2196F3;stroke-width:1.0416666666666667;stroke-dasharray:2.0,2.0;" x1="31.25" x2="1066.6667" y1="2319.1406" y2="2319.1406"/><text fill="#222222" font-family="Verdana" font-size="12.5" font-weight="bold" lengthAdjust="spacing" textLength="118.75" x="46.875" y="2341.1601">[App is running]</text><path d="M35.4167,2370.1497 L119.7917,2370.1497 L119.7917,2397.2005 L109.375,2407.6172 L31.25,2407.6172 L31.25,2374.3164 A4.1667,4.1667 0 0 1 35.4167,2370.1497 " fill="#FFFFFF" style="stroke:#666666;stroke-width:1.0416666666666667;"/><rect fill="none" height="949.2839" rx="4.1667" ry="4.1667" style="stroke:#2196F3;stroke-width:1.0416666666666667;" width="1025" x="31.25" y="2370.1497"/><text fill="#9C27B0" font-family="Verdana" font-size="12.5" font-weight="bold" lengthAdjust="spacing" textLength="20.8333" x="57.2917" y="2393.2109">alt</text><text fill="#222222" font-family="Verdana" font-size="12.5" font-weight="bold" lengthAdjust="spacing" textLength="243.75" x="145.8333" y="2394.2525">[System is interrupted by timer]</text><polygon fill="#2196F3" points="338.0208,2464.8438,327.6042,2469.0104,338.0208,2473.1771,333.8542,2469.0104" style="stroke:#2196F3;stroke-width:1.0416666666666667;"/><line style="stroke:#2196F3;stroke-width:3.125;" x1="331.7708" x2="966.1458" y1="2469.0104" y2="2469.0104"/><text fill="#222222" font-family="Verdana" font-size="12.5" lengthAdjust="spacing" textLength="100" x="354.6875" y="2453.5624">start scheduling</text><line style="stroke:#2196F3;stroke-width:3.125;" x1="326.5625" x2="375.5208" y1="2513.7695" y2="2513.7695"/><line style="stroke:#2196F3;stroke-width:3.125;" x1="375.5208" x2="375.5208" y1="2513.7695" y2="2527.3112"/><line style="stroke:#2196F3;stroke-width:3.125;" x1="332.8125" x2="375.5208" y1="2527.3112" y2="2527.3112"/><polygon fill="#2196F3" points="343.2292,2523.1445,332.8125,2527.3112,343.2292,2531.4779,339.0625,2527.3112" style="stroke:#2196F3;stroke-width:1.0416666666666667;"/><text fill="#222222" font-family="Verdana" font-size="12.5" lengthAdjust="spacing" textLength="91.6667" x="349.4792" y="2498.3215">tickNumber++</text><line style="stroke:#2196F3;stroke-width:3.125;stroke-dasharray:2.0,2.0;" x1="331.7708" x2="375.5208" y1="2587.6953" y2="2587.6953"/><line style="stroke:#2196F3;stroke-width:3.125;stroke-dasharray:2.0,2.0;" x1="375.5208" x2="375.5208" y1="2587.6953" y2="2601.237"/><line style="stroke:#2196F3;stroke-width:3.125;stroke-dasharray:2.0,2.0;" x1="326.5625" x2="375.5208" y1="2601.237" y2="2601.237"/><polygon fill="#2196F3" points="336.9792,2597.0703,326.5625,2601.237,336.9792,2605.4036,332.8125,2601.237" style="stroke:#2196F3;stroke-width:1.0416666666666667;"/><text fill="#222222" font-family="Verdana" font-size="12.5" lengthAdjust="spacing" textLength="35.4167" x="349.4792" y="2572.2473">DONE</text><path d="M45.8333,2611.6536 L130.2083,2611.6536 L130.2083,2638.7044 L119.7917,2649.1211 L41.6667,2649.1211 L41.6667,2615.8203 A4.1667,4.1667 0 0 1 45.8333,2611.6536 " fill="#FFFFFF" style="stroke:#666666;stroke-width:1.0416666666666667;"/><rect fill="none" height="194.6289" rx="4.1667" ry="4.1667" style="stroke:#2196F3;stroke-width:1.0416666666666667;" width="425" x="41.6667" y="2611.6536"/><text fill="#9C27B0" font-family="Verdana" font-size="12.5" font-weight="bold" lengthAdjust="spacing" textLength="20.8333" x="67.7083" y="2634.7148">alt</text><text fill="#222222" font-family="Verdana" font-size="12.5" font-weight="bold" lengthAdjust="spacing" textLength="294.7917" x="156.25" y="2635.7564">[tickNumber % buttonTPeriodicity  = 0]</text><polygon fill="#2196F3" points="140.1042,2706.3477,129.6875,2710.5143,140.1042,2714.681,135.9375,2710.5143" style="stroke:#2196F3;stroke-width:1.0416666666666667;"/><line style="stroke:#2196F3;stroke-width:3.125;" x1="133.8542" x2="315.1042" y1="2710.5143" y2="2710.5143"/><text fill="#222222" font-family="Verdana" font-size="12.5" lengthAdjust="spacing" textLength="135.4167" x="156.7708" y="2695.0663">Get Stop Button State</text><polygon fill="#2196F3" points="303.6458,2756.3151,314.0625,2760.4818,303.6458,2764.6484,307.8125,2760.4818" style="stroke:#2196F3;stroke-width:1.0416666666666667;"/><line style="stroke:#2196F3;stroke-width:3.125;stroke-dasharray:2.0,2.0;" x1="123.4375" x2="309.8958" y1="2760.4818" y2="2760.4818"/><text fill="#222222" font-family="Verdana" font-size="12.5" lengthAdjust="spacing" textLength="35.4167" x="141.1458" y="2745.0338">DONE</text><line style="stroke:#2196F3;stroke-width:1.0416666666666667;stroke-dasharray:2.0,2.0;" x1="41.6667" x2="466.6667" y1="2769.8568" y2="2769.8568"/><text fill="#222222" font-family="Verdana" font-size="12.5" font-weight="bold" lengthAdjust="spacing" textLength="139.5833" x="57.2917" y="2791.8762">[task is not ready]</text><path d="M45.8333,2820.8659 L130.2083,2820.8659 L130.2083,2847.9167 L119.7917,2858.3333 L41.6667,2858.3333 L41.6667,2825.0326 A4.1667,4.1667 0 0 1 45.8333,2820.8659 " fill="#FFFFFF" style="stroke:#666666;stroke-width:1.0416666666666667;"/><rect fill="none" height="194.6289" rx="4.1667" ry="4.1667" style="stroke:#2196F3;stroke-width:1.0416666666666667;" width="405.2083" x="41.6667" y="2820.8659"/><text fill="#9C27B0" font-family="Verdana" font-size="12.5" font-weight="bold" lengthAdjust="spacing" textLength="20.8333" x="67.7083" y="2843.927">alt</text><text fill="#222222" font-family="Verdana" font-size="12.5" font-weight="bold" lengthAdjust="spacing" textLength="275" x="156.25" y="2844.9687">[tickNumber % LED0TPeriodicity = 0]</text><polygon fill="#2196F3" points="140.1042,2915.5599,129.6875,2919.7266,140.1042,2923.8932,135.9375,2919.7266" style="stroke:#2196F3;stroke-width:1.0416666666666667;"/><line style="stroke:#2196F3;stroke-width:3.125;" x1="133.8542" x2="315.1042" y1="2919.7266" y2="2919.7266"/><text fill="#222222" font-family="Verdana" font-size="12.5" lengthAdjust="spacing" textLength="83.3333" x="156.7708" y="2904.2786">Toggle LED 0</text><polygon fill="#2196F3" points="303.6458,2965.5273,314.0625,2969.694,303.6458,2973.8607,307.8125,2969.694" style="stroke:#2196F3;stroke-width:1.0416666666666667;"/><line style="stroke:#2196F3;stroke-width:3.125;stroke-dasharray:2.0,2.0;" x1="123.4375" x2="309.8958" y1="2969.694" y2="2969.694"/><text fill="#222222" font-family="Verdana" font-size="12.5" lengthAdjust="spacing" textLength="35.4167" x="141.1458" y="2954.246">DONE</text><line style="stroke:#2196F3;stroke-width:1.0416666666666667;stroke-dasharray:2.0,2.0;" x1="41.6667" x2="446.875" y1="2979.069" y2="2979.069"/><text fill="#222222" font-family="Verdana" font-size="12.5" font-weight="bold" lengthAdjust="spacing" textLength="139.5833" x="57.2917" y="3001.0885">[task is not ready]</text><path d="M45.8333,3030.0781 L130.2083,3030.0781 L130.2083,3057.1289 L119.7917,3067.5456 L41.6667,3067.5456 L41.6667,3034.2448 A4.1667,4.1667 0 0 1 45.8333,3030.0781 " fill="#FFFFFF" style="stroke:#666666;stroke-width:1.0416666666666667;"/><rect fill="none" height="194.6289" rx="4.1667" ry="4.1667" style="stroke:#2196F3;stroke-width:1.0416666666666667;" width="404.1667" x="41.6667" y="3030.0781"/><text fill="#9C27B0" font-family="Verdana" font-size="12.5" font-weight="bold" lengthAdjust="spacing" textLength="20.8333" x="67.7083" y="3053.1392">alt</text><text fill="#222222" font-family="Verdana" font-size="12.5" font-weight="bold" lengthAdjust="spacing" textLength="273.9583" x="156.25" y="3054.1809">[tickNumber % LED1TPeriodicity = 0]</text><polygon fill="#2196F3" points="140.1042,3124.7721,129.6875,3128.9388,140.1042,3133.1055,135.9375,3128.9388" style="stroke:#2196F3;stroke-width:1.0416666666666667;"/><line style="stroke:#2196F3;stroke-width:3.125;" x1="133.8542" x2="315.1042" y1="3128.9388" y2="3128.9388"/><text fill="#222222" font-family="Verdana" font-size="12.5" lengthAdjust="spacing" textLength="82.2917" x="156.7708" y="3113.4908">Toggle LED 1</text><polygon fill="#2196F3" points="303.6458,3174.7396,314.0625,3178.9063,303.6458,3183.0729,307.8125,3178.9063" style="stroke:#2196F3;stroke-width:1.0416666666666667;"/><line style="stroke:#2196F3;stroke-width:3.125;stroke-dasharray:2.0,2.0;" x1="123.4375" x2="309.8958" y1="3178.9063" y2="3178.9063"/><text fill="#222222" font-family="Verdana" font-size="12.5" lengthAdjust="spacing" textLength="35.4167" x="141.1458" y="3163.4583">DONE</text><line style="stroke:#2196F3;stroke-width:1.0416666666666667;stroke-dasharray:2.0,2.0;" x1="41.6667" x2="445.8333" y1="3188.2813" y2="3188.2813"/><text fill="#222222" font-family="Verdana" font-size="12.5" font-weight="bold" lengthAdjust="spacing" textLength="139.5833" x="57.2917" y="3210.3007">[task is not ready]</text><polygon fill="#2196F3" points="954.6875,3269.4661,965.1042,3273.6328,954.6875,3277.7995,958.8542,3273.6328" style="stroke:#2196F3;stroke-width:1.0416666666666667;"/><line style="stroke:#2196F3;stroke-width:3.125;stroke-dasharray:2.0,2.0;" x1="321.3542" x2="960.9375" y1="3273.6328" y2="3273.6328"/><text fill="#222222" font-family="Verdana" font-size="12.5" lengthAdjust="spacing" textLength="35.4167" x="339.0625" y="3258.1848">DONE</text><line style="stroke:#2196F3;stroke-width:1.0416666666666667;stroke-dasharray:2.0,2.0;" x1="31.25" x2="1056.25" y1="3283.0078" y2="3283.0078"/><text fill="#222222" font-family="Verdana" font-size="12.5" font-weight="bold" lengthAdjust="spacing" textLength="118.75" x="46.875" y="3305.0273">[System is IDLE]</text><!--SRC=[jLHDYzim4BtxLqmFFQKBJaelWIriDg64RfCGUraAXQBO8X5hoyQI0-clxum-OYjEoXRQInpDIEyzlPdHEttW9OUIQTu85h5MLopJueXhg2H4DMkqo4JDf8Q7pIOC9EiaMCzQhIiPX9uMys0zNww3TIfAtaHHHDXtdsdx59PIQ5Q8NvoM2YByfHmUXNwIe2Xsvy_XukVwgzsECOISKe9Y7jygj2Z2mjYGYkmt91939e_WoFmfppTxJjFrga-99eLev1e5CMTk7oIrySF43IXkd4Aw_BRO4cR_688ghl50zcfEmJrCubA5P-7oiDU9Yw78hE5KTytKAnaNf_Zd0_oG6-oDAiUIwHEoV8nZ4yHOOoCJByoeLUpeC8I4-GotZY3H17mFsyN3_FjP2NqlP3q_FYwIvC-wnjTrVHhe6lTqmJyITblPphJ2TMsJs2kp5lu7OO6kffMWiWFFsmBRAUmsfN7- -es6M5VQR41GL5KDBmTHS3GsOWK-27KDGY5WLTSy7mpP7jlJcW9ZOjLyC6IqfSPB7rdHyi6CTPdBCNEmnYIhnKNgXYlLqsBjsA8Tmx6pasBiUElKU2zueRYdH0TafJjcBdEtmVc3nP12xbs6n2OdfNb9EI7nuMtQMlCSTYTNbSZBEJU8APahA445xKDFmAejTxmPZVgTWe_KUhMmZDqUUEyxjT-Ys6bnv67DIp-5BrYS16lhwk5QqZfx9ZSKvhQkWwqRE1VvgRjmG6-Ubd0-Ecv3dLRxVM6UVypq-FfqVy4sVZFR-1RRpTjvlrrFMSVDaQx8o_aJ1brZoFmt]--></g></svg>