<?xml version="1.0" encoding="us-ascii" standalone="no"?><svg xmlns="http://www.w3.org/2000/svg" xmlns:xlink="http://www.w3.org/1999/xlink" contentStyleType="text/css" height="1166.6667px" preserveAspectRatio="none" style="width:1375px;height:1166px;" version="1.1" viewBox="0 0 1375 1166" width="1375px" zoomAndPan="magnify"><defs><linearGradient id="gqsd2nb2ltd6r0" x1="50%" x2="50%" y1="0%" y2="100%"><stop offset="0%" stop-color="#7C9AB9"/><stop offset="100%" stop-color="#304D6D"/></linearGradient></defs><g><g id="init"><rect fill="url(#gqsd2nb2ltd6r0)" height="81.6813" rx="4.1667" ry="4.1667" style="stroke:#304D6D;stroke-width:1.0416666666666667;" width="225" x="17.7083" y="114.5833"/><line style="stroke:#304D6D;stroke-width:1.0416666666666667;" x1="17.7083" x2="242.7083" y1="148.7549" y2="148.7549"/><text fill="#FFFFFF" font-family="Verdana" font-size="11.4583" font-weight="bold" lengthAdjust="spacing" textLength="88.5417" x="85.9375" y="135.6359">APP initalize</text><text fill="#FFFFFF" font-family="Verdana" font-size="11.4583" font-weight="bold" lengthAdjust="spacing" textLength="98.9583" x="28.125" y="169.8074">Initializes SOS</text><text fill="#FFFFFF" font-family="Verdana" font-size="11.4583" font-weight="bold" lengthAdjust="spacing" textLength="193.75" x="28.125" y="183.1457">Initializes LEDs and Buttons</text></g><g id="modify"><rect fill="url(#gqsd2nb2ltd6r0)" height="81.6813" rx="4.1667" ry="4.1667" style="stroke:#304D6D;stroke-width:1.0416666666666667;" width="242.7083" x="373.4375" y="297.9167"/><line style="stroke:#304D6D;stroke-width:1.0416666666666667;" x1="373.4375" x2="616.1458" y1="332.0882" y2="332.0882"/><text fill="#FFFFFF" font-family="Verdana" font-size="11.4583" font-weight="bold" lengthAdjust="spacing" textLength="82.2917" x="453.6458" y="318.9692">Modify task</text><text fill="#FFFFFF" font-family="Verdana" font-size="11.4583" font-weight="bold" lengthAdjust="spacing" textLength="211.4583" x="383.8542" y="353.1408">Modifies priority &amp; periodicity</text><text fill="#FFFFFF" font-family="Verdana" font-size="11.4583" font-weight="bold" lengthAdjust="spacing" textLength="143.75" x="383.8542" y="366.479">Resort the database</text></g><g id="delete"><rect fill="url(#gqsd2nb2ltd6r0)" height="81.6813" rx="4.1667" ry="4.1667" style="stroke:#304D6D;stroke-width:1.0416666666666667;" width="225" x="140.625" y="467.7083"/><line style="stroke:#304D6D;stroke-width:1.0416666666666667;" x1="140.625" x2="365.625" y1="501.8799" y2="501.8799"/><text fill="#FFFFFF" font-family="Verdana" font-size="11.4583" font-weight="bold" lengthAdjust="spacing" textLength="80.2083" x="213.0208" y="488.7609">Delete task</text><text fill="#FFFFFF" font-family="Verdana" font-size="11.4583" font-weight="bold" lengthAdjust="spacing" textLength="193.75" x="151.0417" y="522.9324">Modifies task priority to be</text><text fill="#FFFFFF" font-family="Verdana" font-size="11.4583" font-weight="bold" lengthAdjust="spacing" textLength="166.6667" x="151.0417" y="536.2707">lower than the Idle task</text></g><g id="run"><rect fill="url(#gqsd2nb2ltd6r0)" height="68.3431" rx="4.1667" ry="4.1667" style="stroke:#304D6D;stroke-width:1.0416666666666667;" width="146.875" x="628.6458" y="473.9583"/><line style="stroke:#304D6D;stroke-width:1.0416666666666667;" x1="628.6458" x2="775.5208" y1="508.1299" y2="508.1299"/><text fill="#FFFFFF" font-family="Verdana" font-size="11.4583" font-weight="bold" lengthAdjust="spacing" textLength="95.8333" x="654.1667" y="495.0109">Run scheduler</text><text fill="#FFFFFF" font-family="Verdana" font-size="11.4583" font-weight="bold" lengthAdjust="spacing" textLength="115.625" x="639.0625" y="529.1824">Starts the timer</text></g><g id="disable"><rect fill="url(#gqsd2nb2ltd6r0)" height="68.3431" rx="4.1667" ry="4.1667" style="stroke:#304D6D;stroke-width:1.0416666666666667;" width="152.0833" x="420.8333" y="643.75"/><line style="stroke:#304D6D;stroke-width:1.0416666666666667;" x1="420.8333" x2="572.9167" y1="677.9215" y2="677.9215"/><text fill="#FFFFFF" font-family="Verdana" font-size="11.4583" font-weight="bold" lengthAdjust="spacing" textLength="120.8333" x="436.4583" y="664.8026">Disable scheduler</text><text fill="#FFFFFF" font-family="Verdana" font-size="11.4583" font-weight="bold" lengthAdjust="spacing" textLength="111.4583" x="431.25" y="698.9741">Stops the timer</text></g><g id="create"><rect fill="url(#gqsd2nb2ltd6r0)" height="108.3577" rx="4.1667" ry="4.1667" style="stroke:#304D6D;stroke-width:1.0416666666666667;" width="194.7917" x="397.3958" y="101.0417"/><line style="stroke:#304D6D;stroke-width:1.0416666666666667;" x1="397.3958" x2="592.1875" y1="135.2132" y2="135.2132"/><text fill="#FFFFFF" font-family="Verdana" font-size="11.4583" font-weight="bold" lengthAdjust="spacing" textLength="95.8333" x="446.875" y="122.0942">Task creation</text><text fill="#FFFFFF" font-family="Verdana" font-size="11.4583" font-weight="bold" lengthAdjust="spacing" textLength="163.5417" x="407.8125" y="156.2658">Adds task to Data Base</text><text fill="#FFFFFF" font-family="Verdana" font-size="11.4583" font-weight="bold" lengthAdjust="spacing" textLength="127.0833" x="407.8125" y="169.604">Number of task++</text><text fill="#FFFFFF" font-family="Verdana" font-size="11.4583" font-weight="bold" lengthAdjust="spacing" textLength="135.4167" x="407.8125" y="182.9422">Sorts the database</text><text fill="#FFFFFF" font-family="Verdana" font-size="11.4583" font-weight="bold" lengthAdjust="spacing" textLength="107.2917" x="407.8125" y="196.2804">Creates task ID</text></g><g id="Scheduler"><rect fill="url(#gqsd2nb2ltd6r0)" height="81.6813" rx="4.1667" ry="4.1667" style="stroke:#304D6D;stroke-width:1.0416666666666667;" width="200" x="660.4167" y="807.2917"/><line style="stroke:#304D6D;stroke-width:1.0416666666666667;" x1="660.4167" x2="860.4167" y1="841.4632" y2="841.4632"/><text fill="#FFFFFF" font-family="Verdana" font-size="11.4583" font-weight="bold" lengthAdjust="spacing" textLength="67.7083" x="726.5625" y="828.3442">Scheduler</text><text fill="#FFFFFF" font-family="Verdana" font-size="11.4583" font-weight="bold" lengthAdjust="spacing" textLength="145.8333" x="670.8333" y="862.5158">Loops over database</text><text fill="#FFFFFF" font-family="Verdana" font-size="11.4583" font-weight="bold" lengthAdjust="spacing" textLength="168.75" x="670.8333" y="875.854">Checks if a task is ready</text></g><g id="Task"><rect fill="url(#gqsd2nb2ltd6r0)" height="68.3431" rx="4.1667" ry="4.1667" style="stroke:#304D6D;stroke-width:1.0416666666666667;" width="143.75" x="781.25" y="977.0833"/><line style="stroke:#304D6D;stroke-width:1.0416666666666667;" x1="781.25" x2="925" y1="1011.2549" y2="1011.2549"/><text fill="#FFFFFF" font-family="Verdana" font-size="11.4583" font-weight="bold" lengthAdjust="spacing" textLength="32.2917" x="836.9792" y="998.1359">Task</text><text fill="#FFFFFF" font-family="Verdana" font-size="11.4583" font-weight="bold" lengthAdjust="spacing" textLength="112.5" x="791.6667" y="1032.3074">Any kind of task</text></g><g id="SysTick"><rect fill="url(#gqsd2nb2ltd6r0)" height="81.6813" rx="4.1667" ry="4.1667" style="stroke:#304D6D;stroke-width:1.0416666666666667;" width="204.1667" x="933.3333" y="637.5"/><line style="stroke:#304D6D;stroke-width:1.0416666666666667;" x1="933.3333" x2="1137.5" y1="671.6715" y2="671.6715"/><text fill="#FFFFFF" font-family="Verdana" font-size="11.4583" font-weight="bold" lengthAdjust="spacing" textLength="51.0417" x="1009.8958" y="658.5526">SysTick</text><text fill="#FFFFFF" font-family="Verdana" font-size="11.4583" font-weight="bold" lengthAdjust="spacing" textLength="172.9167" x="943.75" y="692.7241">Increase SysTick counter</text><text fill="#FFFFFF" font-family="Verdana" font-size="11.4583" font-weight="bold" lengthAdjust="spacing" textLength="105.2083" x="943.75" y="706.0623">Calls Scheduler</text></g><rect fill="url(#gqsd2nb2ltd6r0)" height="41.6667" rx="4.1667" ry="4.1667" style="stroke:#304D6D;stroke-width:1.0416666666666667;" width="52.0833" x="683.3333" y="657.2917"/><text fill="#FFFFFF" font-family="Verdana" font-size="11.4583" font-weight="bold" lengthAdjust="spacing" textLength="28.125" x="695.3125" y="682.0918">IDLE</text><ellipse cx="130.2083" cy="27.0833" fill="#304D6D" rx="10.4167" ry="10.4167" style="stroke:none;stroke-width:1.0416666666666667;"/><ellipse cx="595.8333" cy="1144.7917" fill="none" rx="10.4167" ry="10.4167" style="stroke:#3399F3;stroke-width:1.0416666666666667;"/><ellipse cx="596.3542" cy="1145.3125" fill="#3399F3" rx="6.25" ry="6.25" style="stroke:none;stroke-width:1.0416666666666667;"/><!--link *start* to init--><g id="link_*start*_init"><path d="M130.2083,37.5937 C130.2083,52.6667 130.2083,83.0625 130.2083,109.0417 " fill="none" id="*start*-to-init" style="stroke:#446E9B;stroke-width:3.125;"/><polygon fill="#446E9B" points="130.2083,114.5052,134.4018,105.1422,130.2232,109.2969,126.0685,105.1183,130.2083,114.5052" style="stroke:#446E9B;stroke-width:3.125;"/></g><!--link init to create--><g id="link_init_create"><path d="M243.0677,155.2083 C290.5906,155.2083 345.5156,155.2083 391.9104,155.2083 " fill="none" id="init-to-create" style="stroke:#446E9B;stroke-width:3.125;"/><polygon fill="#446E9B" points="397.2365,155.2083,387.8615,151.0417,392.0281,155.2083,387.8615,159.375,397.2365,155.2083" style="stroke:#446E9B;stroke-width:3.125;"/><text fill="#217CA3" font-family="Verdana" font-size="12.5" font-weight="bold" lengthAdjust="spacing" textLength="61.4583" x="289.3229" y="143.8944">Success</text></g><!--link init to *end*--><g id="link_init_*end*"><path d="M114.5424,195.8688 C101.6257,232.1323 85.4167,287.5833 85.4167,337.5 C85.4167,337.5 85.4167,337.5 85.4167,1012.5 C85.4167,1117.2514 493.7479,1139.6177 579.9667,1143.1728 " fill="none" id="init-to-*end*" style="stroke:#446E9B;stroke-width:3.125;"/><polygon fill="#446E9B" points="585.1729,1143.3804,575.9708,1138.8447,579.9687,1143.1736,575.6398,1147.1715,585.1729,1143.3804" style="stroke:#446E9B;stroke-width:3.125;"/><text fill="#217CA3" font-family="Verdana" font-size="12.5" font-weight="bold" lengthAdjust="spacing" textLength="44.7917" x="91.6667" y="682.9569">Failed</text></g><!--link delete to *end*--><g id="link_delete_*end*"><path d="M253.125,549.0208 C253.125,583.0042 253.125,633.2635 253.125,677.0833 C253.125,677.0833 253.125,677.0833 253.125,1012.5 C253.125,1067.8488 289.5969,1077.2823 338.5417,1103.125 C381.1875,1125.6415 531.3604,1138.8376 580.2927,1142.6148 " fill="none" id="delete-to-*end*" style="stroke:#446E9B;stroke-width:3.125;"/><polygon fill="#446E9B" points="585.4875,1143.0095,576.4549,1138.1449,580.2941,1142.6151,575.8239,1146.4544,585.4875,1143.0095" style="stroke:#446E9B;stroke-width:3.125;"/><text fill="#217CA3" font-family="Verdana" font-size="12.5" font-weight="bold" lengthAdjust="spacing" textLength="44.7917" x="259.375" y="852.7486">Failed</text></g><!--link create to *end*--><g id="link_create_*end*"><path d="M592.5469,157.7333 C808.0927,163.651 1305.2083,192.9667 1305.2083,337.5 C1305.2083,337.5 1305.2083,337.5 1305.2083,1012.5 C1305.2083,1102.5639 1210.75,1079.084 1123.9583,1103.125 C1023.7667,1130.8766 688.5646,1141.2976 611.6542,1143.3528 " fill="none" id="create-to-*end*" style="stroke:#446E9B;stroke-width:3.125;"/><polygon fill="#446E9B" points="606.1771,1143.4966,615.6584,1147.4154,611.3836,1143.3597,615.4393,1139.0849,606.1771,1143.4966" style="stroke:#446E9B;stroke-width:3.125;"/><text fill="#217CA3" font-family="Verdana" font-size="12.5" font-weight="bold" lengthAdjust="spacing" textLength="44.7917" x="1311.4583" y="682.9569">Failed</text></g><!--link create to modify--><g id="link_create_modify"><path d="M494.7917,209.651 C494.7917,235.9729 494.7917,267.3646 494.7917,292.4552 " fill="none" id="create-to-modify" style="stroke:#446E9B;stroke-width:3.125;"/><polygon fill="#446E9B" points="494.7917,297.7104,498.9583,288.3354,494.7917,292.5021,490.625,288.3354,494.7917,297.7104" style="stroke:#446E9B;stroke-width:3.125;"/><text fill="#217CA3" font-family="Verdana" font-size="12.5" font-weight="bold" lengthAdjust="spacing" textLength="91.6667" x="501.0417" y="258.4778">Modify Task</text></g><!--link create to delete--><g id="link_create_delete"><path d="M397.3802,186.2094 C344.3323,208.0656 283.3021,243.5469 252.0833,297.9167 C223.1229,348.3531 230.7698,417.5281 240.5771,462.3188 " fill="none" id="create-to-delete" style="stroke:#446E9B;stroke-width:3.125;"/><polygon fill="#446E9B" points="241.7813,467.6573,243.7832,457.5953,240.6353,462.5766,235.654,459.4287,241.7813,467.6573" style="stroke:#446E9B;stroke-width:3.125;"/><text fill="#217CA3" font-family="Verdana" font-size="12.5" font-weight="bold" lengthAdjust="spacing" textLength="90.625" x="258.3333" y="343.3736">Delete Task</text></g><!--link create to run--><g id="link_create_run"><path d="M575.9406,209.4198 C587.3,218.9677 598.1844,229.4646 607.2917,240.625 C663.1156,309.0344 687.276,412.8031 696.7188,468.5802 " fill="none" id="create-to-run" style="stroke:#446E9B;stroke-width:3.125;"/><polygon fill="#446E9B" points="697.5865,473.825,700.165,463.8951,696.7353,468.6867,691.9437,465.257,697.5865,473.825" style="stroke:#446E9B;stroke-width:3.125;"/><text fill="#217CA3" font-family="Verdana" font-size="12.5" font-weight="bold" lengthAdjust="spacing" textLength="108.3333" x="682.2917" y="343.3736">Run Scheduler</text></g><!--link modify to run--><g id="link_modify_run"><path d="M508.1771,379.326 C516.2927,398.5698 528.3094,420.8323 544.7917,436.4583 C566.7865,457.3104 595.9729,472.7458 623.2271,483.7885 " fill="none" id="modify-to-run" style="stroke:#446E9B;stroke-width:3.125;"/><polygon fill="#446E9B" points="628.2917,485.799,621.1156,478.4672,623.4508,483.8772,618.0408,486.2125,628.2917,485.799" style="stroke:#446E9B;stroke-width:3.125;"/><text fill="#217CA3" font-family="Verdana" font-size="12.5" font-weight="bold" lengthAdjust="spacing" textLength="108.3333" x="551.0417" y="428.2694">Run Scheduler</text></g><!--link modify to delete--><g id="link_modify_delete"><path d="M373.4135,372.3656 C337.3792,384.0719 303.9531,397.5521 290.625,410.4167 C276.2729,424.2698 267.3229,444.2344 261.7854,462.4448 " fill="none" id="modify-to-delete" style="stroke:#446E9B;stroke-width:3.125;"/><polygon fill="#446E9B" points="260.3125,467.5281,266.9233,459.6828,261.7618,462.5255,258.9191,457.364,260.3125,467.5281" style="stroke:#446E9B;stroke-width:3.125;"/><text fill="#217CA3" font-family="Verdana" font-size="12.5" font-weight="bold" lengthAdjust="spacing" textLength="90.625" x="296.875" y="428.2694">Delete Task</text></g><!--link modify to *end*--><g id="link_modify_*end*"><path d="M473.8948,379.4094 C437.3385,452.899 365.625,615.7031 365.625,761.9792 C365.625,761.9792 365.625,761.9792 365.625,1012.5 C365.625,1111.4868 528.2417,1136.7964 580.126,1142.3525 " fill="none" id="modify-to-*end*" style="stroke:#446E9B;stroke-width:3.125;"/><polygon fill="#446E9B" points="585.3438,1142.8838,576.4397,1137.7877,580.1623,1142.3555,575.5945,1146.078,585.3438,1142.8838" style="stroke:#446E9B;stroke-width:3.125;"/><text fill="#217CA3" font-family="Verdana" font-size="12.5" font-weight="bold" lengthAdjust="spacing" textLength="44.7917" x="372.9167" y="767.8528">Failed</text></g><!--link run to disable--><g id="link_run_disable"><path d="M628.2917,532.7385 C601.3573,543.9323 572.1115,559.5042 550,580.2083 C532.8323,596.2833 519.924,619.1813 511.1313,638.6802 " fill="none" id="run-to-disable" style="stroke:#446E9B;stroke-width:3.125;"/><polygon fill="#446E9B" points="508.9854,643.5583,516.5743,636.6547,511.0826,638.7909,508.9464,633.2992,508.9854,643.5583" style="stroke:#446E9B;stroke-width:3.125;"/><text fill="#217CA3" font-family="Verdana" font-size="12.5" font-weight="bold" lengthAdjust="spacing" textLength="135.4167" x="556.25" y="598.0611">Disable Scheduler</text></g><!--link run to SysTick--><g id="link_run_SysTick"><path d="M768.3375,542.7094 C821.0615,569.2365 895.1594,606.5167 951.9354,635.0823 " fill="none" id="run-to-SysTick" style="stroke:#446E9B;stroke-width:3.125;"/><polygon fill="#446E9B" points="956.6823,637.4698,950.1807,629.5337,952.0298,635.1287,946.4349,636.9778,956.6823,637.4698" style="stroke:#446E9B;stroke-width:3.125;"/><text fill="#217CA3" font-family="Verdana" font-size="12.5" font-weight="bold" lengthAdjust="spacing" textLength="148.9583" x="894.7917" y="598.0611">System Interrupted</text></g><!--link run to *end*--><g id="link_run_*end*"><path d="M775.5344,518.9094 C912.4031,538.7427 1192.7083,589.9917 1192.7083,677.0833 C1192.7083,677.0833 1192.7083,677.0833 1192.7083,1012.5 C1192.7083,1135.0004 707.075,1143.2955 611.9031,1143.7449 " fill="none" id="run-to-*end*" style="stroke:#446E9B;stroke-width:3.125;"/><polygon fill="#446E9B" points="606.4469,1143.7639,615.8361,1147.8984,611.6552,1143.746,615.8075,1139.5651,606.4469,1143.7639" style="stroke:#446E9B;stroke-width:3.125;"/><text fill="#217CA3" font-family="Verdana" font-size="12.5" font-weight="bold" lengthAdjust="spacing" textLength="44.7917" x="1198.9583" y="852.7486">Failed</text></g><!--link disable to IDLE--><g id="link_disable_IDLE"><path d="M572.9917,678.125 C609.1656,678.125 650.4198,678.125 677.9948,678.125 " fill="none" id="disable-to-IDLE" style="stroke:#446E9B;stroke-width:3.125;"/><polygon fill="#446E9B" points="683.3219,678.125,673.9469,673.9583,678.1135,678.125,673.9469,682.2917,683.3219,678.125" style="stroke:#446E9B;stroke-width:3.125;"/><text fill="#217CA3" font-family="Verdana" font-size="12.5" font-weight="bold" lengthAdjust="spacing" textLength="61.4583" x="597.3958" y="666.8111">Success</text></g><!--link disable to *end*--><g id="link_disable_*end*"><path d="M491.5823,712.5281 C484.5813,763.5365 475.1583,863.6448 493.75,945.8333 C511.0781,1022.4333 565.1802,1102.0836 586.7875,1131.7146 " fill="none" id="disable-to-*end*" style="stroke:#446E9B;stroke-width:3.125;"/><polygon fill="#446E9B" points="589.9656,1136.0326,587.7644,1126.0123,586.8784,1131.8379,581.0529,1130.9518,589.9656,1136.0326" style="stroke:#446E9B;stroke-width:3.125;"/><text fill="#217CA3" font-family="Verdana" font-size="12.5" font-weight="bold" lengthAdjust="spacing" textLength="44.7917" x="500" y="937.6444">Failed</text></g><!--link IDLE to run--><g id="link_IDLE_run"><path d="M708.5125,657.2573 C707.351,630.525 705.2563,582.3469 703.774,548.2552 " fill="none" id="IDLE-to-run" style="stroke:#446E9B;stroke-width:3.125;"/><polygon fill="#446E9B" points="703.5417,542.9104,699.7862,552.4576,703.7679,548.1138,708.1116,552.0956,703.5417,542.9104" style="stroke:#446E9B;stroke-width:3.125;"/><text fill="#217CA3" font-family="Verdana" font-size="12.5" font-weight="bold" lengthAdjust="spacing" textLength="108.3333" x="712.5" y="598.0611">Run Scheduler</text></g><!--link IDLE to SysTick--><g id="link_IDLE_SysTick"><path d="M735.5052,678.125 C776.8896,678.125 859.8094,678.125 927.9896,678.125 " fill="none" id="IDLE-to-SysTick" style="stroke:#446E9B;stroke-width:3.125;"/><polygon fill="#446E9B" points="933.2875,678.125,923.9125,673.9583,928.0792,678.125,923.9125,682.2917,933.2875,678.125" style="stroke:#446E9B;stroke-width:3.125;"/><text fill="#217CA3" font-family="Verdana" font-size="12.5" font-weight="bold" lengthAdjust="spacing" textLength="148.9583" x="759.8958" y="666.8111">System Interrupted</text></g><!--link IDLE to *end*--><g id="link_IDLE_*end*"><path d="M696.0135,699.0438 C680.3115,723.4313 654.7458,766.5698 641.6667,807.2917 C603.2094,927.0292 597.0188,1080.8494 596.024,1128.8021 " fill="none" id="IDLE-to-*end*" style="stroke:#446E9B;stroke-width:3.125;"/><polygon fill="#446E9B" points="595.926,1134.1157,600.2639,1124.8187,596.0216,1128.9083,591.932,1124.6659,595.926,1134.1157" style="stroke:#446E9B;stroke-width:3.125;"/><text fill="#217CA3" font-family="Verdana" font-size="12.5" font-weight="bold" lengthAdjust="spacing" textLength="44.7917" x="621.875" y="937.6444">Failed</text></g><!--link SysTick to Scheduler--><g id="link_SysTick_Scheduler"><path d="M970.2458,718.9115 C928.1031,744.6115 873.2875,778.0406 830.2521,804.2854 " fill="none" id="SysTick-to-Scheduler" style="stroke:#446E9B;stroke-width:3.125;"/><polygon fill="#446E9B" points="825.5958,807.125,835.7694,805.8017,830.0427,804.4135,831.4309,798.6868,825.5958,807.125" style="stroke:#446E9B;stroke-width:3.125;"/><text fill="#217CA3" font-family="Verdana" font-size="12.5" font-weight="bold" lengthAdjust="spacing" textLength="61.4583" x="919.7917" y="767.8528">Success</text></g><!--link Scheduler to Task--><g id="link_Scheduler_Task"><path d="M791.9729,888.7781 C799.1438,898.6396 806.4281,909.374 812.5,919.7917 C822.1,936.2615 830.9844,955.4094 837.9823,971.849 " fill="none" id="Scheduler-to-Task" style="stroke:#446E9B;stroke-width:3.125;"/><polygon fill="#446E9B" points="840.0917,976.8583,840.2935,966.6011,838.0704,972.0582,832.6133,969.8351,840.0917,976.8583" style="stroke:#446E9B;stroke-width:3.125;"/><text fill="#217CA3" font-family="Verdana" font-size="12.5" font-weight="bold" lengthAdjust="spacing" textLength="103.125" x="832.2917" y="937.6444">Task is Ready</text></g><!--link Task to Scheduler--><g id="link_Task_Scheduler"><path d="M784.8323,976.9438 C773.7521,968.3802 763.7938,958.0552 757.2917,945.8333 C748.9833,930.2156 748.026,911.0885 749.7823,893.9688 " fill="none" id="Task-to-Scheduler" style="stroke:#446E9B;stroke-width:3.125;"/><polygon fill="#446E9B" points="750.4094,888.726,745.1579,897.5393,749.7903,893.8975,753.4322,898.5298,750.4094,888.726" style="stroke:#446E9B;stroke-width:3.125;"/><text fill="#217CA3" font-family="Verdana" font-size="12.5" font-weight="bold" lengthAdjust="spacing" textLength="38.5417" x="763.5417" y="937.6444">Done</text></g><!--link Scheduler to IDLE--><g id="link_Scheduler_IDLE"><path d="M748.3542,807.2396 C738.649,775.351 725.3063,731.5125 717.0188,704.2802 " fill="none" id="Scheduler-to-IDLE" style="stroke:#446E9B;stroke-width:3.125;"/><polygon fill="#446E9B" points="715.4302,699.0635,714.1738,709.2455,716.9467,704.0462,722.1461,706.8191,715.4302,699.0635" style="stroke:#446E9B;stroke-width:3.125;"/><text fill="#217CA3" font-family="Verdana" font-size="12.5" font-weight="bold" lengthAdjust="spacing" textLength="115.625" x="744.7917" y="767.8528">Task is Blocked</text></g><!--link Scheduler to *end*--><g id="link_Scheduler_*end*"><path d="M740.3219,888.776 C714.4677,939.3563 667.5552,1028.9833 622.9167,1103.125 C617.1229,1112.7471 610.0719,1123.2917 604.6167,1131.2263 " fill="none" id="Scheduler-to-*end*" style="stroke:#446E9B;stroke-width:3.125;"/><polygon fill="#446E9B" points="601.451,1135.7978,610.2139,1130.4626,604.4162,1131.5159,603.3628,1125.7183,601.451,1135.7978" style="stroke:#446E9B;stroke-width:3.125;"/><text fill="#217CA3" font-family="Verdana" font-size="12.5" font-weight="bold" lengthAdjust="spacing" textLength="44.7917" x="701.0417" y="1016.2903">Failed</text></g><!--link Task to *end*--><g id="link_Task_*end*"><path d="M808.3354,1045.9188 C782.0031,1064.4966 747.5094,1087.039 714.5833,1103.125 C678.8771,1120.5693 633.776,1133.7771 610.7885,1139.931 " fill="none" id="Task-to-*end*" style="stroke:#446E9B;stroke-width:3.125;"/><polygon fill="#446E9B" points="605.7031,1141.2736,615.8314,1142.9076,610.7387,1139.9434,613.7029,1134.8507,605.7031,1141.2736" style="stroke:#446E9B;stroke-width:3.125;"/><text fill="#217CA3" font-family="Verdana" font-size="12.5" font-weight="bold" lengthAdjust="spacing" textLength="44.7917" x="764.5833" y="1094.9361">Failed</text></g><!--SRC=[VLF1Rjim3BthAxWEs6553ziE0t8eaCGj423RYgItjGVPOX0XicH8yWhlwqT9bc87wN9ngFVuHF9H7_mHMmJNyGOLhvaxITrnorjOMclU7etsQwECXOzVltnVBxzT8-pze11geyG4tNlkSUczbNNlyOB6Zb8WODlv0GIwnihEIwEP2qbmitnw0gcbvqh-nHlWBaOP_M64F0pWkJj5h8rnHYjKID-2YXXdTDThSCqHHQ_GHjpsvTfAEbvJYNE2IAUPz4p2q5ZaeU18Y476zpbtZ0CzGuDxbasEDjNsWR7G5onWGnyPktMm_xM_Thnzg1nmBM3LUs-qO_HBDozWAOIB7OCtK77FOSKT5lXdtzPemHmYv_Qs07jZFIKU4GGbrTESTVoEgfkAiJJb1SJfIq8wAusLPE0dw93-2zbGL7WxTAG-5sV9Z8b8b2zAL7sDBrgPDohN7xcEwHkXaf-CaLcBi5cvR2zRcZGRBGgGwMP8iMC1MnCmyuUaSq4lUdt4vaJhTG2UQf6q4SZ5GAd9hk1268eh1a9ZUktHKZPNoaqiPy1OC9mSqGFGKn1vw8pz_lmATtVtQPEJmHGL9_gcGUV6yy0B_0KySgbGvC7129pFKtx9A40vluUPSKDQo0cSBHdVpIKS9nvUpQJBfFWUF46lQHVuiXMI2XCfNkRNU5QE3A8KP-YFnvOC8ZTittcIIPnBxL4qw8TtTvvt0Iup0ksz3XFs_ph6_4lPl4AnZVDkvdBE-nePQPUUnxtSnRsSCr8tcR5IfZdHDNFEh818dLzU6OtZ-Ppz3m00]--></g></svg>